<mxfile host="app.diagrams.net" agent="Mozilla/5.0 (Macintosh; Intel Mac OS X 10_15_7) AppleWebKit/537.36 (KHTML, like Gecko) Chrome/129.0.0.0 Safari/537.36" version="24.7.17">
  <diagram name="Page-1" id="Mmq67-78MIHL7ZcV66Hz">
    <mxGraphModel dx="2537" dy="1073" grid="1" gridSize="10" guides="1" tooltips="1" connect="1" arrows="1" fold="1" page="1" pageScale="1" pageWidth="850" pageHeight="1100" math="0" shadow="0">
      <root>
        <mxCell id="0" />
        <mxCell id="1" parent="0" />
        <mxCell id="Sfq1RslhefIw9rJTZr1K-1" value="" style="verticalLabelPosition=bottom;verticalAlign=top;html=1;shadow=0;dashed=0;strokeWidth=1;shape=mxgraph.android.phone2;strokeColor=#00bcd4;fillColor=#a9e2ea;" parent="1" vertex="1">
          <mxGeometry x="-10" y="430" width="230" height="450" as="geometry" />
        </mxCell>
        <mxCell id="Sfq1RslhefIw9rJTZr1K-3" value="" style="shape=image;verticalLabelPosition=bottom;labelBackgroundColor=default;verticalAlign=top;aspect=fixed;imageAspect=0;image=https://external-content.duckduckgo.com/iu/?u=https%3A%2F%2Fvectorified.com%2Fimages%2Ficon-react-native-24.png&amp;f=1&amp;nofb=1&amp;ipt=d00c0cab5ac8ffd830310115e68cdb67407a168c83454f6e0768b054e0bc21b7&amp;ipo=images;" parent="1" vertex="1">
          <mxGeometry x="20.5" y="570.5" width="169" height="169" as="geometry" />
        </mxCell>
        <mxCell id="Sfq1RslhefIw9rJTZr1K-4" value="&lt;div style=&quot;font-size: 25px;&quot;&gt;&lt;font style=&quot;font-size: 25px;&quot;&gt;&lt;br&gt;&lt;/font&gt;&lt;/div&gt;&lt;div style=&quot;font-size: 25px;&quot;&gt;&lt;br&gt;&lt;/div&gt;&lt;div&gt;&lt;br&gt;&lt;/div&gt;&lt;div&gt;&lt;br&gt;&lt;/div&gt;&lt;div&gt;&lt;br&gt;&lt;/div&gt;&lt;div&gt;&lt;br&gt;&lt;/div&gt;&lt;div&gt;&lt;br&gt;&lt;/div&gt;&lt;div&gt;&lt;br&gt;&lt;/div&gt;&lt;div&gt;&lt;br&gt;&lt;/div&gt;&lt;div&gt;&lt;br&gt;&lt;/div&gt;&lt;div&gt;&lt;br&gt;&lt;/div&gt;&lt;div&gt;&lt;br&gt;&lt;/div&gt;&lt;div&gt;&lt;br&gt;&lt;/div&gt;&lt;div&gt;&lt;br&gt;&lt;/div&gt;&lt;div&gt;&lt;br&gt;&lt;/div&gt;&lt;div&gt;&lt;br&gt;&lt;/div&gt;&lt;div&gt;&lt;br&gt;&lt;/div&gt;&lt;div&gt;&lt;br&gt;&lt;/div&gt;&lt;div&gt;&lt;br&gt;&lt;/div&gt;&lt;div&gt;&lt;br&gt;&lt;/div&gt;&lt;div&gt;&lt;br&gt;&lt;/div&gt;&lt;div&gt;&lt;br&gt;&lt;/div&gt;&lt;div&gt;&lt;br&gt;&lt;/div&gt;&lt;div&gt;&lt;br&gt;&lt;/div&gt;&lt;div&gt;&lt;br&gt;&lt;/div&gt;&lt;div&gt;&lt;br&gt;&lt;/div&gt;&lt;div&gt;&lt;br&gt;&lt;/div&gt;&lt;div&gt;&lt;br&gt;&lt;/div&gt;&lt;div&gt;&lt;br&gt;&lt;/div&gt;&lt;div&gt;&lt;br&gt;&lt;/div&gt;&lt;div&gt;&lt;br&gt;&lt;/div&gt;&lt;div&gt;&lt;br&gt;&lt;/div&gt;&lt;div&gt;&lt;br&gt;&lt;/div&gt;&lt;div&gt;&lt;br&gt;&lt;/div&gt;&lt;div&gt;&lt;br&gt;&lt;/div&gt;&lt;div&gt;&lt;br&gt;&lt;/div&gt;&lt;div&gt;&lt;br&gt;&lt;/div&gt;&lt;div&gt;&lt;br&gt;&lt;/div&gt;&lt;div&gt;&lt;br&gt;&lt;/div&gt;&lt;div&gt;&lt;br&gt;&lt;/div&gt;" style="rounded=1;whiteSpace=wrap;html=1;fillColor=#fff2cc;strokeColor=#d6b656;" parent="1" vertex="1">
          <mxGeometry x="365" y="240" width="400" height="740" as="geometry" />
        </mxCell>
        <mxCell id="Sfq1RslhefIw9rJTZr1K-6" value="" style="shape=image;verticalLabelPosition=bottom;labelBackgroundColor=default;verticalAlign=top;aspect=fixed;imageAspect=0;image=https://external-content.duckduckgo.com/iu/?u=https%3A%2F%2Flogos-world.net%2Fwp-content%2Fuploads%2F2021%2F02%2FGoogle-Cloud-Emblem.png&amp;f=1&amp;nofb=1&amp;ipt=b3b5d074bd54c4da424ae3d9954ba26be896dc77fe2dda0282267599cef70596&amp;ipo=images;" parent="1" vertex="1">
          <mxGeometry x="360" y="257" width="147.56" height="83" as="geometry" />
        </mxCell>
        <mxCell id="Sfq1RslhefIw9rJTZr1K-12" value="&lt;div&gt;&lt;br&gt;&lt;/div&gt;" style="rounded=1;whiteSpace=wrap;html=1;fillColor=#e1d5e7;strokeColor=#673ab7;" parent="1" vertex="1">
          <mxGeometry x="910" y="240" width="400" height="738" as="geometry" />
        </mxCell>
        <mxCell id="Sfq1RslhefIw9rJTZr1K-13" value="" style="shape=image;verticalLabelPosition=bottom;labelBackgroundColor=default;verticalAlign=top;aspect=fixed;imageAspect=0;image=https://external-content.duckduckgo.com/iu/?u=https%3A%2F%2Fwww.aicn.me%2Fwp-content%2Fuploads%2F2023%2F04%2F86206-runpod.io.png&amp;f=1&amp;nofb=1&amp;ipt=56904662e247bcb71363ad525945595766fdef9e8e238f2402b8de041af28698&amp;ipo=images;" parent="1" vertex="1">
          <mxGeometry x="930.54" y="255" width="85" height="85" as="geometry" />
        </mxCell>
        <mxCell id="Sfq1RslhefIw9rJTZr1K-19" value="&lt;div&gt;&lt;br&gt;&lt;/div&gt;&lt;div&gt;&lt;br&gt;&lt;/div&gt;&lt;div&gt;&lt;br&gt;&lt;/div&gt;&lt;div&gt;&lt;br&gt;&lt;/div&gt;&lt;div&gt;&lt;br&gt;&lt;/div&gt;&lt;div&gt;&lt;br&gt;&lt;/div&gt;&lt;div&gt;&lt;br&gt;&lt;/div&gt;" style="rounded=1;whiteSpace=wrap;html=1;fillColor=#b9c6da;strokeColor=#407ce2;" parent="1" vertex="1">
          <mxGeometry x="440" y="377" width="240" height="170" as="geometry" />
        </mxCell>
        <mxCell id="Sfq1RslhefIw9rJTZr1K-21" value="" style="shape=image;verticalLabelPosition=bottom;labelBackgroundColor=default;verticalAlign=top;aspect=fixed;imageAspect=0;image=https://external-content.duckduckgo.com/iu/?u=https%3A%2F%2Fk21academy.com%2Fwp-content%2Fuploads%2F2021%2F02%2FGoogle-Cloud-Storage-logo.png&amp;f=1&amp;nofb=1&amp;ipt=72c3e02dcada2c97398f1b33f39a87f310575d211740871996d0af48e5d054dd&amp;ipo=images;" parent="1" vertex="1">
          <mxGeometry x="525" y="430" width="70" height="70" as="geometry" />
        </mxCell>
        <mxCell id="Sfq1RslhefIw9rJTZr1K-22" value="" style="shape=image;verticalLabelPosition=bottom;labelBackgroundColor=default;verticalAlign=top;aspect=fixed;imageAspect=0;image=data:image/png,iVBORw0KGgoAAAANSUhEUgAAAgAAAAIACAYAAAD0eNT6AAAAAXNSR0IArs4c6QAAAERlWElmTU0AKgAAAAgAAYdpAAQAAAABAAAAGgAAAAAAA6ABAAMAAAABAAEAAKACAAQAAAABAAACAKADAAQAAAABAAACAAAAAAAL+LWFAABAAElEQVR4Ae29B9glRZm+TxjSkJWkiKDkUQEBFZUcRBAXs+gqiqvIX0yrf4VrRUVXXXNAcBfUVXGVFdeEmJCoIBIVRREEB4YoKGkYMvh7HpjDnO+b75zTfU691emu63q+74Tut966q07X291V1UssQYIABCAAAQhAAAIQgAAEIAABCEAAAhCAAAQgAAEIQAACEIAABCAAAQhAAAIQgAAEIAABCEAAAhCAAAQgAAEIQAACEIAABCAAAQhAAAIQgAAEIAABCEAAAhCAAAQgAAEIQAACEIAABCAAAQhAAAIQgAAEIAABCEAAAhCAAAQgAAEIQAACEIAABCAAAQhAAAIQgAAEIAABCEAAAhCAAAQgAAEIQAACEIAABCAAAQhAAAIQgAAEIAABCEAAAhCAAAQgAAEIQAACEIAABCAAAQhAAAIQgAAEIAABCEAAAhCAAAQgAAEIQAACEIAABCAAAQhAAAIQgAAEIAABCEAAAhCAAAQgAAEIQAACEIAABCAAAQhAAAIQgAAEIAABCEAAAhCAAAQgAAEIQAACEIAABCAAAQhAAAIQgAAEIAABCEAAAhCAAAQgAAEIQAACEIAABCAAAQhAAAIQgAAEIAABCEAAAhCAAAQgAAEIQAACEIAABCAAAQhAAAIQgAAEIAABCEAAAhCAAAQgAAEIQAACEIAABCAAAQhAAAIQgAAEIAABCEAAAhCAAAQgAAEIQAACEIAABCAAAQhAAAIQgAAEIAABCEAAAhCAAAQgAIF6EViyXu7gTTCBtWV/NWmlvv/LBueJeQhAAAJdIvAPFfZW6Q5pgXSbdJ10v1SrRABQq+pI5swysvQMaQdpc2lTaRPJnT8JAhCAAATyErhX2V0h/Um6TDpHOkO6WaosEQBUhj55xuvL4suk3aTtpRUlEgQgAAEI1JPAg3Lrt9Jp0velsyRfPciWCACyoQ7JaAVZ3UfaX9pLWloiQQACEIBA8whcLZe/KX1JujyH+wQAOSinz2MtmXyT9HZp1fTmsQgBCEAAAhUSOFl5v1f6daQPBACRdNPbXk8mD5VeJy2f3jwWIQABCECgRgQcCHxIOiPCJwKACKrpbXpQn8/43RA8gp8EAQhAAALdIXCiinqwNC9lkblnnJJmjK1dZNaV/yqJKXsxjLEKAQhAoM4EPIvr9dI90nmSBxBOnLgCMDHCMAOzZPkwyfeBlgrLBcMQgAAEINAkAg4AXi7NndRpAoBJCcbs/3iZPU56Vox5rEIAAhCAQIMJeHEhXxH4v0nKwC2ASejF7LunzJ4ibRxjHqsQgAAEINBwAh4E/lLJ/08dtywEAOOSi9nvlTJ7vMQiPjF8sQoBCECgLQR8BX97aUPJ48RKjwvgFoCo1SR5hOcREvf7a1IhuAEBCECgIQQ8XfBF0vwy/hIAlKEVt+27ZPrjceaxDAEIQAACLSdwhsr3XOnuouUkAChKKm47T+87VqIu4hhjGQIQgEAXCPxQhfSVgPuLFJYxAEUoxW3jdfw92p96iGOMZQhAAAJdIeAnv24g/aBIgel4ilCK2WZLmf2ZtFyMeaxCAAIQgEAHCbhvuVPy0wWHJi47D8UT9qWX8z1X2jwsBwxDAAIQgEBXCfgWwC7SmcMAMOJ8GJ24774g03T+cXyxDAEIQKDLBLySrG8vrzEMAgHAMDox371GZl8dYxqrEIAABCAAgYcIPE5/vzyMBWMAhtFJ/92jZPIEiYV+0rPFIgQgAAEITCXgQYEXSX+a+vHD77gCMBOVuM8+JtNrxpnHMgQgAAEIQGAKgSP0bsbHyDMIcAqn0DfbybpHZVYRdN2lfH8lnS79XrpU+qt0h3SfRIIABCAAgXQEVpcpd7p+povHe20veVDe2lIVySefh1aRMXk+TOAX+vePzDpb+R0grSyRIAABCECgOgI++dtN+rp0r5SzP/DqgOtKpAoI7KA8c1a2rzTsXEE5yRICEIAABEYT8CPf/0vydL1cfcNnRrvFFhEEfpqpkm9VPv8icWsnohaxCQEIQCAtgW1l7jdSjiDAt3wZg5a2/kZa2zpT5V6gfDYc6Q0bQAACEIBAnQgsL2e8NkyOIODDdSp4F3zxZZ7oij1ZeXCfvwutiTJCAAJtJfBmFewBKbK/uEH2vUgQKQMBr/N/sxRZod+X/WUylIUsIAABCEAglsDrZP5BKbLP8CODSRkIvER5RFakZxaskKEcZAEBCEAAAnkIHKJsIvuNb+QpBrn47DyqIq+X7armlFKzEIAABCAQR+DbMh3VdyyQ7RkXBoorTvcs+7L8fCmqEvfoHlJKDAEIQKATBFZVKedJUf3H3p2gWGEhnx1Yef9TYbnIGgIQgAAE4glE3kL+RLz73c7hMBU/InpjRadutytKDwEIdIeAx3lF9CMXdgdhNSU9Jajijq6mOOQKAQhAAAKZCTxH+UUEAJ5u6KfTkoII3CS7ERX35CB/MQsBCEAAAvUjcIlciuhLdlyqfmVthUeOrNYIKIlX+7s4wC4mIQABCECgngSixnxtSgAQU+GbxZhd4gdBdjELAQhAAAL1JODp5BGJACCCqmxuGmT31CC7mIUABCAAgXoS+KPc8hK+qRMBQGqiC+2tE2DXy0MycjMALCYhAAEI1JiA7/+fF+DfY7gFEEBVJlcJMHuVbN4VYBeTEIAABCBQbwKXBri3MgFAAFWZjFhm8eoYV7EKAQhAAAI1JzAvwL9VCAACqMpkxKN5vawwCQIQgAAEukcg4vjPFYCgdjQ7wC6X/wOgYhICEIBAAwj4AT6p02yuAKRGGmfPA0FIEIAABCAAgRQEliQASIERGxCAAAQgAIGGESAAaFiF4S4EIAABCEAgBQECgBQUsQEBCEAAAhBoGAECgIZVGO5CAAIQgAAEUhAgAEhBERsQgAAEIACBhhEgAGhYheEuBCAAAQhAIAUBAoAUFLEBAQhAAAIQaBgBAoCGVRjuQgACEIAABFIQIABIQREbEIAABCAAgYYRIABoWIXhLgQgAAEIQCAFAQKAFBSxAQEIQAACEGgYAQKAhlUY7kIAAhCAAARSECAASEERGxCAAAQgAIGGESAAaFiF4S4EIAABCEAgBQECgBQUsQEBCEAAAhBoGAECgIZVGO5CAAIQgAAEUhAgAEhBERsQgAAEIACBhhEgAGhYheEuBCAAAQhAIAUBAoAUFLEBAQhAAAIQaBiBWQ3zF3chMAmBtbXzatJKff9t7w7p1oX/b9H/GyUSBCAAgVYTIABodfV2tnDLqOTPkHaQNpc2lTaR3PkXSQ4GLpMulf4onSmdI90nkSAAAQi0ggABQCuqkUKIwPrSy6TdpO2lFaVxkwOFpy9Uz8YCvfildIp0vDRPIkEAAhCAAASmEHAH8Y/Esk3SVAIr6O1LpR9K90upmQ+y94Dy8lWBA6WVJRIEIACBSAI+zg06Hk3yeaTPnbVNABBb9WvJ/OGSL9VP0vhT7DtfPnxOeqxEggAEIBBBICQAYBZARFVhM4rAejJ8lHSV9H5pVanq5AGFb5Uulz4vPU4iQQACEKg9AQKA2lcRDoqAB/W9TfKAvDdJy0t1S74d8WbJAwcPl5aTSBCAAARqS4AAoLZVg2MLCeyi/7+TPiv5bLvuabYc9NWJC6WdJRIEIACBWhIgAKhlteCUCHiGyuHSydJmUtPSHDl8quTxAcs2zXn8hQAE2k+AAKD9ddzEEj5eTp8h+Uy6yW10Sfnv8QFnSU+USBCAAARqQ6DJB9faQMSRpAT2lLWLpGcltVqtsW2V/fnS7tW6Qe4QgAAEFhEgAFjEglfVE3ilXPCcfi/E07a0ugr0I2m/thWM8kAAAs0kQADQzHpro9cHq1Bflzziv63JYwG+Kb2zrQWkXBCAQHMIEAA0p67a7Om7VLgjpS60R48L+KREECAIJAhAoDoCXTjgVkeXnIsQeJU2+liRDVu2zSdUnte1rEwUBwIQaBABAoAGVVYLXd1HZfqK5LPiriWX+RjphV0rOOWFAATqQYAAoB710EUvtlSh/cwEz/fvalpaBfe4hyd3FQDlhgAEqiNAAFAd+y7nvJIKf5zk5XO7nvzY4u9IPFWw6y2B8kMgMwECgMzAye4hAl/Q381h8QiBTfTq6Efe8QICEIBABgIEABkgk8UUAq/Ru1dP+YQ3JvAKyQMiSRCAAASyECAAyIKZTBYSeJT+e/Q7aWYCfuDRo2f+ik8hAAEIpCVAAJCWJ9aGE/B0vzWHb9Lpb935/3unCVB4CEAgG4Euj8DOBpmMHiKwnf6+riIWdynfX0mnS7+XLpX+Kt0hOXlQ4tqSnzroEfm7SH4WwfJS7vRGZeipkeflzpj8IAABCEBgcgKe3vaPxLLNJqdfyPnUTEbZO1t5HiCNM8J+Fe3ngOXX0qh8Un/vxwiTIAABCPQIvFQvUh9nbI8UQIAAYCrUHfQ2ovEOsunH7+481YWJ3u2qvXMHAm16GuJE8NkZAhBYIiQAWAqwEMhA4D0Z8nAWt0mvl7aXTpdSJZ+Ru0P25fnbUxkdYScXsxFu8DUEIAABCJQhwBWARbS21stBZ+opP79A+Wy4KNuwVxvL8m+klL7PZOtB5bFVWCkwDAEINIkAVwCaVFv4+giBAx95FffiFJneWboiLotHLP9Zr3yF4SePfBLzws8K8NUMEgQgAIEQAtwCCMGK0YUEltP/lwXT+IHs7yXND86n3/wCvdlXOqH/w4DX+8nmsgF2MQkBCECgE89fp5qrI/B8Zb16YPa/lG2voHdfYB6DTDtPd9AecBiVvC7A86KMYxcCEOg2Aa4AdLv+o0sfubTtDXLe98U8x7+q5Lztg9cUiEr/HGUYuxCAQLcJEAB0u/4jS7+MjO8WmMH+sh3Z8RZ1/Xpt+NqiG4+x3R7ahwW7xgDHLhCAwHACBADD+fDt+ASerl29wl5E+oaM/jzC8Jg2f6r9vj3mvqN284JE24zaiO8hAAEIlCVAAFCWGNsXJeDldCPSPTJ6SIThCW2+S/vfO6GNQbvvOugLPocABCAwLgECgHHJsd8oAlEBwNeU8bWjMq/g+6uU59eD8iUACAKLWQh0mQABQJdrP7bsWwSZ/3yQ3RRmj0hhZAYbUSxnyIqPIACBrhAgAOhKTect56OU3RoBWXq1v4sD7KYy+TsZuiiVsT47a+l15HTKvqx4CQEIdIUAAUBXajpvOTcLys6L/tQ9Rfm4Sd0Ljn8QgECzCBAANKu+muLtpkGONuExuVE+RjENqirMQgACdSdAAFD3Gmqmf+sEuO2H41wYYDe1yfNk0L6mTo9NbRB7EIBAtwkQAHS7/qNK77nrqZNH2Ve56l/R8typDa8punGJ7aLWVCjhAptCAAJtIkAA0KbarE9ZIjqrq+tTvJGezBu5RfkNIoKq8l6wBwQg0BoCBACtqcpaFWTlAG9yPu1vUvcjfI1gOmk52R8CEGgwAQKABldejV33Y4BTp6hV9lL7aXt3BxhdPsAmJiEAgQ4TIADocOUHFn1BgO3ZATajTEbcAom4qhBVfuxCAAINIEAA0IBKaqCLEZ3Vag3iEOHrHQ0qP65CAAINIEAA0IBKaqCLEQHAxg3isFGAr7cH2MQkBCDQYQIEAB2u/MCiR3RWXl7YS+LWPXkNhIhleyOY1p0l/kEAAoEECAAC4XbY9Nygsm8fZDel2R1TGuuz9Ze+17yEAAQgMDEBAoCJEWJgBgKXzvBZio92T2Ek2MZuQfYvC7KLWQhAoKMECAA6WvHBxf6z7D8QkMeLZXOZALupTNq3F6Uy1mfHLK/oe89LCEAAAhMTIACYGCEGZiBwjz7z0r2pk8cA7JXaaEJ7+8hWxGOQfUvFTEkQgAAEkhEgAEiGEkPTCJw77X2qt4emMhRg550BNm3ynCC7mIUABDpMgACgw5UfXPRTg+w/U3brOBbgufLr2UFlPi3ILmYhAIEOEyAA6HDlBxc9stM6Sr5HLDc8LpJlteNnxt25wH6nFNiGTSAAAQiUIjCr1NZsDIHiBC7XpvOkxxffpfCWm2jL90jvK7xH7Ibvl/nNgrLw9L8rg2xjtrkEniDXt5SeJG0hef0Jr0Bp+cFRXjfCq0d6Ua5rpUukP0i/l/4o/UMiQQACAQSOl03/wFLKNpuWPieHUzLot+WR8XW4FfAc+WFf+n1L+frTsk2CgK8y7S0dKTm4nqSNXaf9vyrtJ82WSPUn8FK5OEmdD9q3/iVvoIcEAA9X2rZBjbbXmG+VfZ8FVZV89nWz1PMn4v9WVRWOfGtBYF15cYh0tRTRvm6T3aOlrSVSfQkQANS3bhbzjABgERJfdow4cPVsXiP7my7KLtsrX/J33j0/Iv7/LltpyKhuBDaSQ8dJkVeXprfZnyq/beoGAn8eIhASADAIkNYVTeDY4Ax8hvRL6RnB+fSb90yEMyXnHZm+Hmkc27Uk4HUkfJnf9+l9iT7nMXpP5Xee9G1pfYkEAQiMQYArAIugPVovPRBp+tlG6vd3K4+3SUtKkelAGfeiPKn9n27vDuXhzoDUHQKeSuoBe9PbQhXvfWvAbT3696QsSAUIhFwBKJAvm4xBgABgKrRP6W2ug9hpymvO1OyTvNtYVnyJNFc5PpbEa4w0gcBsOflFKVfbKpPPT+SXg3hStQQIAKrlXyp3AoCpuB6rt3dJZQ48k2zrM3QPbPJUqUnThjLgg/O90iQ+ldn3TuW1jkRqPwHX87lSmfaRe9sr5F9EUN3+2k1XQgKAdCzDLREALI7Y9zVzH7juV54+a3+15OcIFE1ra8P9pZMk28jt92eVJ6n9BDyL5Eopd/saJ79b5OduEqkaAiEBwKxqykKuHSTwfpV5Pynn5cSllZ8HNlk+6F28UJfq/w2S77M7rSQ9RtpEeorkA3NV9z5vUt4flEjtJuA2doaU8/cwCVEvMPRD6XnSaZMYYl8ItJ0AVwBmruE36ONxzj66tM9rZ0bHpy0isJ7KcpXUxHa9QH7v0KK6aEpRQq4A5Jxi0hTQ+BlH4MsyfXac+cZbPksl+FrjS0EBhhHwrahTpccP26jG382WbydIjAmocSUVdY0AoCgptktB4EEZ8VUAD3IjTSXgM6veFZKp3/CuLQSWUUF8ddCL/DQ5+XbAjySPlSE1mAABQIMrr6Gu/0F+v6Whvke6fbCMXxKZAbYrJ3CUPNipci/SOLCBzJwo+YoAqaEECAAaWnENd/u/5f+xDS9DSvfNg0v/KYnWz9a75ZKv8LQpbavC+HdMP9LQWqXiGlpxLXDbZ7wXtaAckxbhNzLAFZFJKdZ7/73k3kfq7eLY3r1Ye3547L3ZsVICBACV4u905p6C9xzpzx2m8BeVfW+JMRHtbQQeLHec5CmpbU2HqmAHtbVwbS4XAUCba7f+ZbtRLvrs6K/1dzW5hzctLLvXIyC1k4Dn+HvE/KrtLN6UUh2hd3tM+YQ3tSdAAFD7Kmq9g1eohD4L/nvrS7qogC6rH/xy2aKPeNUyAh7x/x3JS0l3Ibm8/yc9pQuFbUsZCQDaUpPNLseFct+Li8xrdjEKeX+dttpFcplJ7SXQphH/RWtpFW3oKx5MDyxKrOLtCAAqrgCyf4SAp8A9U/rdI5+078UfVaTtpN+3r2iUqI9AG0f89xVv6MsN9C3TA4ciqs+XPAugPnWBJ0ss0Ts7/rpg+LZAm5LXUX+N5IeqkNpL4Pkq2n9UUDzfVvLZ91zJr9eU/BROrzuwqZQzeXqgp7W+XPLiXyQIdIrA8SrtPxLLNruSllRB3yblfARv6vrq2btP5Thc4mqbILQ8+f737VKv7nP8/63yc9Dhe/CDkv06VnJnnMOnXh4fHeQQn5cm8NKguivtCDuMJkAAMJpRkS2epY08Va53QGnafw9w9CV/UvsJrKUizpVytdH5yutAqcz0wt44m1w+Op/XS6TJCRAATM4wmwUCgHSoV5Cpw6W7pZwHrkny8pWLz0l+zDCp/QSWUxHPlCZpM2X2vVF5bTEm1vW132UZffVvYfcxfWW3RQQIABaxqP0rAoD0VeT7mCdJZQ6UVWz7E/m4cfriY7HGBL4q33K1tQXKa5sJWayr/a/O6LPHvcyZ0Oeu704A0KAWQAAQV1nPlmkPqMt9P3PUAd5ngLvGFRvLNSXgEf+j2kaq793m90vE4Umyc2tG3+cqL6YHjl95BADjs8u+JwFAPHKPNP6WVOWtgbuU//9KW0uk7hHwKpb3S6k6+FF23psYsf33INVR+ab6/jzlNTtxGbpijgCgQTVNAJCvsrzM6v7Sz6VcVwXOV16epbCGROomgTkqds4z6G8rP8+OSZ3eIIOpOvgidrxaIDNiytciAUB5ZpXtQQBQDfr1lO1rJU95ukYqckAqso1teV7za6THSaRuE3i0in+5VKTtpNjmAuUVeeb82YxlMY8q1klQto1OIQHArEYjwXkITCXggU1fXSh/80Rpc2kzaZOFWl3/V5ZWk3qj9O/Qa5/NeQ63/3uU9KULdYn+/0UiQcAEPN/+O9KGfpMheXGsfaU7A/N6h2xvIDmfHOlQZXKV9F85MiMPCOQmwBWA3MTJDwJ5CByjbFKc1Rex4U7/aXmK9dAVhnMyls3TA/fIVLY2ZBNyBYB7MW1oGpQBAhDIQcAj/n3PPEdygPA6yQPnciQHGy+QfBUtR/KVFI8H8CqFpIoIEABUBJ5sIQCBRhHwiPmPZPT4/crLM0xypuuVmct5W6ZMeXpgJtCDsiEAGESGzyEAAQg8TMAj/o+Tls4ExGfGH8qU1/Rs/qAPXiF5emOOtIEyOVGKHOSYoxyNzIMAoJHVhtMQgEAmAh7xf4Lk6aY5kkf8v0byLYCqklezfFPGzL2mx7ES/VFG6M4K4JmBkx0EINAYAm0c8V8U/he1oZ9nkSu9WBl9OFdm5AOBSALMAoiki20I5CHQ1hH/Ren5BPH7kq9G5NJBRZ3r2HbMAuhYhVNcCECgOgJtHvFflKpX1nyldG7RHRJsd4Rs7JHADiYKEOAWQAFIbAIBCHSKQO4R/+8T3dwj/otWKNMDi5Jq4HYEAA2sNFyGAATCCMyR5dwj/ut+75vpgWHNrVrDBADV8id3CECgPgS6OOK/KH2mBxYl1aDtCAAaVFm4CgEIhBHo8oj/olCZHliUVEO2IwBoSEXhJgQgEErgKFnfKTSHRcbv0ksvu3vtoo8a88rTAz1QL1diemAu0uSTjADTAJOhxBAEwgl4xH+uaW4eWb9feIliM/CJI9MDYxlPtx4yDXB6Jm15v2TFBSEAqLgCyB4CBQl4xL+Xvc0VABxW0K+6bzZbDp6TkVvXnx4YEgC04RaAO/vnSV+W/Az3uyVH2bdLfpLWJ6UnSSQIQAAC/QQY8d9Po9xrpgeW48XWAQR2k02PTi0SvfuS1XoBPsxkkisAM1HhMwjUh4BH/F8uFTl2pNjmfOXls+a2JZ9c3SqlYFTExlzltXbbIBYoT8gVgAL51nITn/V/VPKZfpFG09vGVwV2l6ITAUA0YexDYHwCHvF/utQ7LkT/92C/daW2Jt9GuU+K5tiz7yu7bQymhrUPAoA+Op+eoLH5FsGefbYiXhIARFDFJgTSEOj6Gv9pKE618ga97XXQOf77kcltuIU9leLgdwQAC9m8Wv8nbWA3ycZjBrOe+BsCgIkRYgACIQQY8R+C9SGjfnrgpMfmMvv/R1xRameZAEBV4vt27rzLNJJB234rsIoJAALhYhoCYxJgxP+Y4AruxvTAgqDG2IwAQNBSRu+e+rPRGBVRZBcCgCKU2AYC+QjMUVY5B6v5GFD1dOR8dBflNFsvmR64iEeqVyEBQNPuobwmFU3ZWVp6VUJ7mIIABOpJoIo1/l8rFL762LXE9MAG1XiTAoCNxdVRfMq0Q0pj2IIABGpHwCP+vyNtmMmz65TPvpI7wq4mnh7YkJpvUgAQMX0vdUDRkGrHTQh0hsAXVNKdMpW2yWv8p0b0Bxl8heRbrTnSBsrkRMm3IEgFCTQpANijYJnKbEZjKUOLbSHQLAIeM/T6TC77cv8Bkueokx4m4KcHHpwRxrbK62tSk/q1jHiam5Xv198i+UeWUn8LQnJ8Yj9dZtskQQACxQgw4r8YpxxbMT1wcsohgwAndyuPhe2UTcqOv2frrCD3CQCCwGIWAgUIzNE2jPgvACrTJj4j91LsveNujv8HZSpbrmxCAoCmXCqJuP/virsoV+2RDwQgkIUAI/6zYC6ViZdsf6V0bqm9Jtv4CO0ecdt4Mq9qtndTAoCoijylZvWBOxCAwPgEltGujPgfn1/knkwPjKQ7pu0mBAArqmzPGLN8w3Z7QF+eNmwDvoMABBpFgBH/9a4uTw/cW7otk5urKJ8TpC4+PbAQ4iYEADupJMsVKk25jS7U5jeX24WtIQCBmhJgxH9NK2aaWxfrPdMDp0Gp6m0TAoCoy/8/rwo6+UIAAkkJeMT/R5JaHG7sffr6W8M34dshBJgeOAQOX00l4IgxYtToLlOzSfqOWQBJcWIMAgMJMOJ/IJraf8H0wOJVFDILoHj21Wy5jrL1CNLUAcAC2Yy4rdCjRADQI8F/CMQR8Ij/y6XUx4dB9s5XXrPjitM5y74CzfTAYtUeEgDU/RaAL/9HPFHrF7J7TzHubAUBCNSQACP+a1gpJV1iemBJYKk3b0IAkLrMtndyhFFsQgAC2Qgw4j8b6tCMmB4Yine48boHALsOd3/sbxkAODY6doRA5QQY8V95FSR1gOmBSXG2w9iTVIxB9+Im+fwG2Y24rdBPnTEA/TR4DYF0BFjjPx3Lully3d4nTXJ8L7OvH9zUlDEdnRsDEDX9z5f/3UhIEIBAswjMkbvHSX44WI70bWXy4RwZkcdDBJgemLkh1PkWQNT6/9z/z9zIyA4CCQiwxn8CiA0wcYx89Dr+udJLlFFng7xZuSiXzGdZbb9TyX2Kbs76/0VJsd0wAk/Ql9tIG0pPlB4vrSCtJHmE+r2Sn0h3h3TFQv1Z/8+VbpdIxQl4yu4PJLPOka5RJs+XPECNlJ/AO5Slf1+ugxzpUGXi6aRfzpEZeYwmsKM2KXMvp+i2fxyddZItGAOQBGOtjKwqb/aXXLfXSkXb3PTt7te+v5E+K7md1/kqnNyrRfqqvJjOMeq9A7ata1HqbjvhQNrLtUfV83S7DtijrjqnqMmQMQApHIuw8UEZnV5BKd7nurREABDRKvLb9GDR50o++7xbStEGp9twMPEpyWc8pMUJeMT/dGZR7x9UXi9e3AU+qYjAusr3aimqvqfbvUV5zamorKOy7VQAcHZQpee6pEQAMKo51/t7DzI7QIpahnr6gcfvfWXA7YazT0FYmPx79VM7Z+IV8dlhvYz5XxsCW8mT+VJEfc9k8y/Ka63alH6RI50JAFZTmSOmgtimHw+ZIxEA5KAck8cuMnuRNNPBIcdnPgt1+3m81OU0R4X3GIoczJ2HmfuKD6l+BJgeuMQSnQkAXqj2F/GjPzNjuyYAyAg7UVYOPD3FLKLtjWPzdvnyxkRla5oZn4HNlcbhNs4+5ygvD+Ak1ZfAm+XaOHU77j4+htdpfE5nAoCjgir6/RnbNgFARtgJstpONjxSf9yDReR+35NfngLXleQZFKdLkUz7bXsMhu81k+pP4HNysb/uol//R42QdCYAuCyokp+dsTIJADLCnjArn2X7/nv0wWQS+3Pl36YTlrMpu39Vjk7Cqsy+jPhvSqt42E+PzTkhY/twW/qXh7Ou/G8nAoD1gyrXl1N9ZpErEQDkIj1ZPodo9zIdRpXb/l2+bj9ZcWu/d+4R/y+vPREcnE5gtj7wLZtcv0VPD9xjuhMVvO9EAPD6oIr1NK6ciQAgJ+3yeXmw1+elXAeRVPkskM+7lS9uI/ZgxH8jqqkWTvqWzdVSqt/VKDt1mB7YiQDgf4Mq9S2Zmy0BQGbgJbJz53+ENOpHX9fv75TvdV6wpERVPLLpHL1ixP8jOHhRgMCTM7eZucpv7QJ+RW3S+gDAIy5vlCIOvJtF1coAuwQAA8BU/HHTO//eb6NNQYAHOF4u9coW/f985TW74nZI9mkIdGl6YOsDgK3VJiJ+/NekaWulrBAAlMKVZeO2dP6930gbggBG/Gdp+q3O5ECVrvebyPHfT4isYnpgSABQRUEGtcaoy5onDcqQzztDwJ2/pxDlvhUUCdjz1j0iOup3E+l7z/YX9GKn3pvg/3fJ/gskT/sjtYfAMSqKb+nlSi9RRh/OlVmX8vm5ChsRwb2yAohcAagA+oAs23bmP/030tQrAe8O+r1P5+P3Xl2REf8DfiAt+Ngnst+XZqr7qM8Oyswt5ApA5jIMzG55feMDWerK8g9/nYG5xn1BABDHtozltnf+vd9L04IA37vNufbCYWUaDds2koDHdbR5emCrAwBfxuwdzFL+/21FTZkAoCLwfdl2pfPv/V6aEgTMUR0x4r+vofIyGYHHyNI8qfebiP5/m/J6SjLvhxsKCQDqMgYgaqGFk4cz5duWEmjjPf9RVdWEMQEe8e9xC6uOKkyi7y+QnddK7ghI7SdwvYq4t+SOOUfyw+XcnqucHjhROesSAEQNZPK4AlK3CHSx8+/VcJ2DAI/4/460Yc/Z4P/Xyf6+kq+MkLpDwI/wfoXkW0w50gbK5ETJtyBIYxDwWUHEM7/vkd0Vx/AnxS7cAkhBsbyNrl32H3SJs463A76o6hzkb+rPXf6nlW8+7NEiAm2bHhhyC6AO9e3RuakPALZ3aoWFIwDID5/Of+rvqE5BwCFBv/GZjhuM+M//26trjp76O1Mbifos8umBIQHArBrUHJf/a1AJDXfBnb/X9j+4onL4qXKnSGdJN0h+v4b0BMntexsp9+223u2A5ytv+1ZV+idl/JGMmb9PeX0rY35kVV8C75BrT5T2yeTiocrncunLmfJrRTZ/USkiIrIqLwFyBSBf03Tnf2RQGxrVLq9Vvm+RPI11WNpAX35J8pPFRtlM/b2vBFT1AKEtlPftGcv8TeXl9kCCQI/ASnpxoZT6dzXInn/jEb+3kCsAPUhV/d84qGJult2lqyqU8iUAyAPfB/sjpEE/xsjPf6J8VytZzGdqew9Oi/RrJttV3A7wFRCfDc3kT8RnrPEv2KQZCTxWn86TItrdTDYjpge2MgB4U1CleL3mKhMBQDz9Ks/8j1Lxxr2k70eZXiLNdOCI/CznlYDlVL4zM5bxauXlOeAkCAwisJW+mC9F/sb6bfvK9lqDnBnj81YGAN8NqpA3jgE45S4EAClpLm6ryjP/o+XOpJeZfWC4WOo/YOR4netKACP+F2+zfFI9gb3kwn1Sjt+a8zhPmi2lSK0LAHyJ3pfqIyrDAz+qTAQAcfSb3vn3yLQ1CGDEf6+G+V9HAk2dHti6AGA7tY6Izn9uDVodAUBMJbSl8+/RaVsQ4DMsL8AS8bueyeZ7eiD5D4ESBHKPG0oxC6Z1AcB7VWEz/agn/cyXaKtOBADpa6BtnX+PUFuCgDkqEGv892qV/3Um4PE735cm7WvK7D/p0wNbFwCcEVQBL6lByyMASFsJbe38e5SaHgQw4r9Xk/xvCoHZcvRcqUwnPsm2nh64xwRwWhUAeIneuwPgPyCbPhhVnQgA0tVA2zv/HqmmBgHLqACnS5McHMvs67UXPJOCBIFJCTRpemCrAoDnqebK/OiLbutRl3VIBABpaqErnX+PVhODAEb892qP/00k8GQ5nfPW1Vzlt/YYoFoVAHxGAIp26mW2SzHYYoy6WWwXAoDFkJT+oGudfw9Qk4IARvz3ao3/TSbQhOmBrQoAouZA71qTVkgAMFlFdLXz71FrQhDAiP9ebfG/DQTqPj2wNQHAOmotfmJXmTP7ItsukE2vQFaHRAAwfi10vfPvkatzEDBHTua8bOrfk9sFCQKRBOo8PbA1AcCrVYNFOvSy2/w0smWUtE0AUBLYws3p/Kdyq2MQwIj/qXXEu/YQqPP0wNYEAMeqvZTt3Its///XqB0SAJSvDDr/mZnVKQhgxP/MdcSn7SEwW0U5VyrS56TYpuj0wNYEANcEwd2yRm2QAKBcZdD5D+dVlyCAEf/D64lv20GgjtMDWxEAPEntI0XUNN3GX2W3TvcICQCKHwjo/IuxqjoIYMR/sXpiq3YQqNv0wFYEAG9X25jeead4/42atTkCgGIV4s7/yKA2MapdOd86BY1FiHkA7SUV8LpLeXqRrVFMU33PGv+CTaqcwD7yIOezLc5WfisMKHUrAoAfqXCpDhL9dg4YAK2qjwkARpPnzH80o5m2qOpKQP/vLfK1fztNC8xmqic+aweBukwPbHwAsKzaw3wp4uCxXs3aGgHA8Aqh8x/OZ9S3bQ0CzlfBZ48qPN9DIDOBOkwPbHwAsKMqLaLz9yXRuiUCgME1Quc/mE2Zb9oWBLDGf5naZ9ucBOowPTAkAHDBcqU9gjI6OcguZtMTcOf/Oekt6U2PtHiMtvAjOR2EtiHdqELsKv2hBYXxGIMXSA4CSBCoGwEvXPdKKeezZnzVIarPrISvBzhEXAH4p0pKMzxTrgAszocz/8WZpPik6VcCfHB9eQoQ2IBAMIEqpweGXAEI5vWI+dX06j4pdQBgm6s+kkt9XhAATK0LOv+pPFK/a3IQwIj/1K0Be5EEqpoe2OgA4IWqkdSdv+2dFVnTE9gmAFgEj85/EYvIV00MAvw7cfsgQaBJBKp4euCrBCiiD83C/agg5w/P4n35TAgAHmZG51++7UyyR5OCAEb8T1LT7Fs1gdzTA6NuoWfheJlyiYhets/ifflMCAAePrPLPX2m18aOVpV19cyyCUGAB/utW/5nxR4QqBWBqo5vveNciv/hQNdXDikcnW7jdtldJtz78TLoegDAmf947SbVXnUOAu5UIZ+WqqDYgUCFBKqYHji9H5z0fTi+1yuHSZ2caf8Twj0fP4MuBwB0/uO3m5R71jEIYMR/yhrGVh0IzJYT50oz9VFN+Cyc4f8GwXlruOfjZ9DVAIDOf/w2E7Fn3YIARvxH1DI2qyaQe3pgysAilJ0vkdwopXS4Z2vzUM8nM97FAIDOf7I2E7V3XYIA/ybcRkgQaCOB3NMDe/3gpP9D62JrWZ/UwZn2vybU68mNdy0AoPOfvM1EWqg6CGDEf2TtYrsuBHJPD5ypbyz7WSi7d8t6WYeKbP+VUK8nN96lAIDOf/L2ksNCVUEAI/5z1C551IVA7umBRfrLYduEcvu5rA/LfNzv/jnU68mNdyUAoPOfvK3ktJA7CLhThWPEf84aJq86EGjS9MAwXsvLsg8A43byg/bzSOLHhHmdxnAXAgA6/zRtJbeVXEEAI/5z1yz51YVAk6YHhjHbQ5YHdeKTfH5RmMfpDLc9AKDzT9dWqrCUIwhgxH8VNUuedSEwW46cK03S1+XYN4zXx4IK/6kwj9MZbnMAQOefrp1UaSkyCHD7dzshQaDLBJowPTCsfi6U5YgI5rlhHqcz3NYAgM4/XRupg6WIIIAR/3WoWXyoC4GnypH5UkRfmMJmCKdHy+oDAYW+RzZXDPE4rdE2BgB0/mnbSF2spQwCGPFfl1rFjzoRqPP0wBBOL5fVFNHJdBunhXib3mjbAgB3/kcG1en0Op7+3vlyOTl9G+23uI7eXCJNZ1/m/R3a32c7JAhAYHECb9FHZX5PubZd3NMEn3wpqLD/lsC3HCbaFADQ+edoMdXn4SDAA2zHOfD4wVw7VF8EPIBArQnUcXpgCLC5sjrOgWTUPk8P8Ta90bYEAHT+6dtGnS2uJOe+J436HfZ//ydtv22dC4VvEKgJgaXlxw+l/t9P1a+To9k4qIC3yK4BNiG1IQCg829CS0vvo+v9hdLF0rCDk5fjPkxaTiJBAALFCDjI/o007LeV7btZxXwutZXn/0ekU2TUAwtJ8QTcCXxeOjg+q8VyOEqf9O6XLfYlH4QT8MHHVwG+L20hPUfaSPLg27uly6QLpNMlfo+CQIJACQIeK7OPdI60bon9GrPpd+VpRARzUGMILLFEk68AuPOv6l7V0crb+ZMgAAEItJlAXaYHJmXsS/Q3SxEBwIZJPY011tQAgM4/tl1gHQIQgECPQB2mB/Z8SfJ/O1mJ6PznJvEun5EmBgB0/vnaBzlBAAIQMIG3ShF9ZiGbfmhByhR1//+klE5iazEC7vx9z9/33nMn3/P37R03WBIEIACBLhHw7VYfe1uRzlApCkUeJbd7acPoNOkKAGf+DWtcuAsBCLSKQJVPD0wGsjdKOHUA4JHGayTzMo+hpgQA7vyPlFLXWRF7ztf5kyAAAQh0nUBV0wOTcX+eLBU58Jfd5rxkHuYz1IQAgDP/fO2BnCAAAQiMIpD96YEpxwDsPqp0Y35/8pj7sdtgAu78uec/mA/fQAACEMhN4DpluK/ktQIaly6Wx2XP7otsv2vjSNR7HQDO/BvYoHAZAhDoDIGc0wOTQPWDRB6UinToZba5SzZXSOJhXiN1vQXgzp97/nnbArlBAAIQKEsg1/TAsn7NuP3++rRMx15025/NmFv9P6xjAMCZf/3bDR5CAAIQ6BEIX5E11RiAqPv/P++R4P9EBLjnPxE+doYABCCQncC/KscTs+daMkN3Lh68UPSsvsx2W5X0pS6b1+kKAGf+dWkV+AEBCECgHIHo6YHlvJlh6yfrszKdetFtb5LdVFcoZnA79KO6BADu/LnnH1rVGIcABCAQSsBPDfy7VLTvLLxdig428vK/BxaSxiPgzv9z0sHj7T7RXsdobx7pOxFCdoYABCDwEIFr9fdjESxSBABR6/8z/3/8Gnfnzzz/8fmxJwQgAIE6EZgb4cykAcCycmrHCMdk89Qgu2032+v8qzjz94N9OPNvewujfBCAQCsITBoA+PG/HqSQOl0qg1emNtoBe3T+HahkiggBCEAgBYFJA4Coy/9M/ytfu3T+5ZmxBwQgAIHOEpg0AIgaAMj9/3JNks6/HC+2hgAEINB5ApMEAKuJ3rYBBO+XzdMD7LbVJJ1/W2uWckEAAhAIJDBJALCL/JoV4Nu5snlbgN02mnTnz1S/NtYsZYIABCAQTGCSACDq/j+X/4tVeq/z96j73Mnz/A+SvOAECQIQgAAEGkhgkgAg6v4/AwBHNyQ6/9GM2AICEIAABIYQGDcAWF82Nx5id9yv5mvHc8bduSP70fl3pKIpJgQgAIFIAuMGAFGX/89QYe+LLHDDbdP5N7wCcR8CEIBAXQiMGwBw+b+aGvSAP+75V8OeXCEAAQi0isA4o/gdNOwaRIEBgIPBPlVfbTT467BvGPAXhhbDEIAABKojMM4VgK3k7poBLl8nm5cE2G2LSTr/ttQk5YAABCBQAwLjBABR9/89+p9pZTVoFAtd4My/PnWBJxCAAASSExgnAIi6/8/l/+TVO7ZBOv+x0bEjBCAAgWYQKBsALK9iPTugaD7zPyXALibLE6DzL8+MPSAAAQg0jkDZAGAHlXCFgFJeLJvXB9jFZDkCdP7leLE1BCAAgcYSKBsAcPm/sVU90nE6/5GI2AACEIBAewiUDQAiBwC2h2rzSkLn37w6w2MIQAACExEoEwCsoZy2nCi3mXe+Vx//cuav+DQDATr/DJDJAgIQgEDdCJQJAHz5v8z2Rct6tja8o+jGbJeUAJ1/UpwYgwAEINAcAmU69Kj7/zz9r5r2QudfDXdyhQAEIFALAmUCgN2CPGb+fxDYIWbp/IfA4SsIQAACXSBQNADYRDA2CAByq2yeH2AXk4MJ0PkPZsM3EIAABDpDoGgAEHX5/1SRfqAztKsvKJ1/9XWABxCAAARqQaBoABA1/Y/L//maAZ1/PtbkBAEIQKD2BIoEAEurFDsFlaStAwAfDOI1rlk6/3HJsR8EIACB6gm4H06dHigSADxNua6eOmfZu0q6PMBuHUzWaVojnX8dWgQ+QAACEBifwMrj7zpwz/lFAoCoy/8nDXSr+V/Mr0kR6PxrUhG4AQEIQGACAqtNsO+gXQsFAFEDANt8/78OAcBRqvWDJD9pkQQBCEAAAs0lsFGA6yMDgBWV6TMCMvY98tMC7NbF5O0VO+Iz/7dIdP4VVwTZQwACEEhAYPMENqabuG3ULYCdtcdy0/dK8P43snFTAjt1NTG3Qsc4868QPllDAAIQSExgednbNrFNm5s7KgDg8v941C8db7eJ9+LMf2KEGIAABCBQKwLby5sVAjy6bJTNi7WBLyOnVtSywqPKk+t7XzW5P4DbsHo4UvktmauA5AMBCEAAAlkIfEm5DDv2j/vdy4d5v46+9L36cY0P2u8u2YyIZoaVpYrvrlSmgxik/vxo5UXnX0UtkycEIACBOAKzZdpL5qfuM2zvqcPc3j8o05OGZdqi734UxG96Q+DMv0WNhqJAAAIQ6CPwDr2efsxP8X6B7C7bl89iL48Nyvhdi+XUzg+iKq6/8jnzb2fboVQQgAAEVhKC66T+Y36q1z8ZhteXk6MyHnrZYZhTDfvOT1BMVVkz2flP2eeyf8MaBe5CAAIQKEjg49pupmN/is+Gnog/OShjT/0bNfOgIJtGbHZnEEc3gA82ggBOQgACEIBAWQJP0w73Sik6+5lsbDPMoX8Nyvi4YZm28Ds/7Ggm+Ck+82OUo6ZptrAqKBIEIACBRhDwsr9/kVL0EzPZuEq2h56I/ygo83+R3S6l7VTYmSog1WceHbpll4BSVghAAAItJuCBeR4on6qPmMnOh4bxswNey36mHSf9bINhGbf0u3lBLHt1cY3sb9pSdhQLAhCAQFcIeP2Y70m9Y3vU/82GAd0pyIGqVscbVtYc3x0SxLO/cdyoPJ6RozDkAQEIQAACyQn4sv9pUv9xPeL1uaM8//cgJzxfvYvp0Sp01BWV/gZyt/J5m8TMgC62MsoMAQg0lcDWcvxyqf94HvX6n0dB+nWQIy8YlXGLv/9UENOZGslpymtOi1lSNAhAAAJtIDBbhThc8snbTMfy1J85yJglDUy+DBGxhr1trj4w1/Z/8VgV8S4pdYUOsneP8vIiQU+QSBCAAAQgUB8CK8oVz7SLWmtnUL8wchD+C+XUoJ0n+fxX9WFfmSe+BTIJw3H2deD1U+nV0loSCQIQgAAE8hPwI313l74o3SKNczyfZJ+5ytMD/Kek6ZcD9pjybbo3J6cz1VhL75fn+0keE5ArLa2M9lwoN56LF8oDMm+Q7pC82AQJAhCAAATSEfAV71WljSSPun+65CCgquSl6Rc71k8fMHaZNto4wMMdZfOXAXabZvINcviYpjmNvxCAAAQg0FgCP5Pnz53J+/4AYH1tcOVMG0342QLt/yhpsehjQrtN3N2rL50pPbOJzuMzBCAAAQg0isA98nYLySf3i6X+5QCjLv+frlzp/B9G/6D++SqAnxFAggAEIAABCEQS+DcZn7Hzd6Y5AgCvh09aROAPevmWRW95BQEIQAACEEhOwEv6f2aY1d4tAAcCHhS25rCNx/zOTxZ0p0eaSuBrerv/1I94BwEIQAACEJiYwNWy8FTp78Ms9QIAr0R0wbANx/zOQcVjJY9AJ00lsJLeejzAllM/5h0EIAABCEBgbAJec2YX6ZxRFnq3AKLu/58kB+j8Z64FT8F7jvTnmb/mUwhAAAIQgEApAn5M/KukkZ2/rfYCgB38JiAx/384VD/EZy/pr8M341sIQAACEIDAUAI+2X6j9N2hW/V92QsAntb3WaqXdoYAYDTNK7TJ3tLQezWjzbAFBCAAAQh0lID723dLXy5TfgcAG0gRy8R64N/1Emk0gQu1ia/CzBu9KVtAAAIQgAAEHiHwgF4dJH3ykU8KvnAA4CUKIxLT/8pRvUSbe4Gg35Xbja0hAAEIQKCjBLzQz8ulY8YpvwMAT9OLSKdEGG25TT8dyqM3f9zyclI8CEAAAhCYjICvGO8kfWdcMw4AHjfuzkP2u1/fnTHke74aTOBmfbWP9HbpvsGb8Q0EIAABCHSUwA9Vbs/zLzTafxCjqADAT53zNDfSeAQ8oONz0s7SXIkEAQhAAAIQuFsI3intK/lkcaLkAMAL9aROHtRGmpzAr2TiSdIHJN/rIUEAAhCAQDcJ+La6z/o/LfkkceLkAGDtia0sbuCqxT/ikzEJeFWnwyWvGMjASkEgQQACEOgQgStV1hdJu0t/kpIlBwDLJLO2yBDT/xaxSPXqUhnyyoHbSydKSSJA2SFBAAIQgED9CPj2r8eCbS59L8I9BwBW6uT7FKQYAmfJ7PMlT988XuLWgCCQIAABCLSEwLkqx6ukjSWPBQvrT2fJOKmZBM6X257/uarkASGvlnaTlpRIEIAABCDQHALXylVP5/tv6aJcbkcFAKvlKgD5LHGbGBy7UOvpv4OAXRdqXf0nQQACEIBAvQgskDu/lE5dqN/o/4NS1uQAwFMJVk6c62MS28NcMQJ+BvRXF8p7PFHy/aPNpE0WanX9d307SFtJWlYiQQACEIBAOgK3yNR8ydPhb5d8P9/juHryVPlarPPyazniAWUp5UsZJAhAAAIQgAAEakrAAwBvCPDtqQE2MQkBCEAAAhCAQCICUQHAE+TfBol8xAwEIAABCEAAAokJOAC4JLHNnrnn9V7wHwIQgAAEIACB+hHYQS6lvP/fs3V2/YqKRxCAAAQgAAEI9AisohcPSL2OO+X/LXuZ8B8CEIAABCAAgfoRuEwupez4e7a8Uh0JAhCAAAQgAIGaEvgv+dXrtFP+98IG29S0zLgFAQhAAAIQ6DyB54tAyo6/35ZXOIpacbDzFQcACEAAAhCAwCQEZmtnP3a2v+NO+fo9kzjHvhCAAAQgAAEIxBH4sUyn7PT7bd0v23vEuY5lCEAAAhCAAATGJfAK7djfaad+favsMx5g3NphPwhAAAIQgEAQgeVk90Ypdcffb8/2WSY4qAIxCwEIQAACEBiXwCe0Y3+HHfHaT0jae1wH2Q8CEIAABCAAgfQENpbJqEWB+oMJ5/ExiUfRpq9DLEIAAhCAAATGIvB17dXfWUe+/oPy2nMsL9kJAhCAAAQgAIGkBDaStfukyI5/uu3TlN8+kh9ORIIABCAAAQhAoCICX1S+0zvpHO+vVr6flXaWuD0gCCQIQAACEIBATgKPU2a3STk6/UF53KH8fyK9Q9pCWlIiQQACEIAABCAQTOBg2R/UOVfxuacQHi8dKK0vkSAAAQhAAAIQCCDg+/G/lKro7IvkeYV8O1p6qbSaRIIABCAAAQhAoCCBUZfVN5edC6XlC9qrajMvNXyOdPJC/Vr//RkJAhCAAATqS2ATubaztJW0huQp4j65+63kW8ALJFKFBA5Q3kXOyOu0ze3y+QTprdIciQQBCEAAAvUhsINcOUka1m/4OO6rvGtLpAoJuBKGVVTdv7tG/n9VepW0jkSCAAQgAIH8BLzk/KekB6Wi/cbfte3LJFJFBFxpvsRetMLqvJ0b3u+kT0teknhFiQQBCEAAArEEZsn896Rx+gffGjgo1j2sDyPgyzB/ksapvDrvc4/KdLp0mLSdtLREggAEIACBtAT+U+Ym6Qt88vbctC5hrQyB9bTxXGmSSqz7vreofN+V3iR5gAoJAhCAAAQmI7Czdi9z2X9QP3G97Kw+mSvsPQmBDbXztdKgCmrb51eqrF+S9pPWlEgQgAAEIFCOwLnaPFXf8J5yWbN1agJPkME/SqkqtCl2fB/K0yI/Lj1HWkEiQQACEIDAYAJP1lcpj/G+CsBzYwbzzvKNL8OcLqWs2KbZukvlP1k6VNpGolEKAgkCEIBAH4EP6XXqY/sWffZ5WREBzw74qpS6cptq729icbx0oOSrJCQIQAACXSeQ8vJ/r294Q9eh1qn8Xo73ZqlXOfx/mMUVYtJbrvhRdaowfIEABCCQgYCvFN8vpe4T3p3Bd7IoQWADbVvnZwekboBl7flH4Ej4I9Iukq+ekCAAAQi0mcBLVLiyx8oi2x/WZmhNLZvn0L9RulEqUold3sZrXP9Ueqe0pbSkRIIABCDQJgJRq8i+v7bNGAAAD4NJREFUuk2Q2laWVVWgT0heZKfLnXyZsv9VrL4pHSB5vQUSBCAAgaYT+IsKUOY4WHRbD7om1ZyAB8IdIc2XilYs2z3M6k9idqS0r+SAigQBCECgSQQ2krMRx/PbZNfLCpMaQmA1+elBG/OkiAbRdpv3iduvpA9IO0jLSCQIQAACdSbw/8m5iGPzD+pcaHwbTMDz5H3p5nDpcimicXTBpscP/Fw6RDJPxg8IAgkCEKgVAS+pHnE8PrhWpWywM1V2HM77GdKe0u7SdhKXdQRhjHS99nFAcPJC+T0JAhCAQFUEPCDc66L46m/qtJkMXpraKPaqJeDH8joQ+Kh0vpTiwRER0WcTbPavP8D4ATUmEgQgkJWAT+gijpVXZy0FmVVGYG3l7AWGPI2EsQPj/5i8/oADKgdWDrCWlUgQgAAEIgm8V8YjAoAvRTqN7foSeKJcO1DyUru3ShGNqws27xA7xg8IAgkCEAgj8AtZjjievjzM4w4arnIMwCS4PVZgS8lntNZOEiPjBWGMdIP28QqOHj/wI+laiQQBCEBgXAIra8e/S6mPyb4tvI50k0SCwCMEVtIrBwK98QMRkWdXbPaPH1jlEcK8gAAEIFCMwPO1WcTx8oJi2bNV1wk4SuyNH/AZbURj7IJNrz/QP34gdUTf9XZK+SHQRgJe/C3i+OgTPBIEShPoHz9wu/aOaJxdsOkVHfvHD5SuCHaAAARaT+ASlTDieLhb68llLmBTxwBMgql//IAvVT1TWmoSgx3e1+sNeOzAD6VTJd/3I0EAAt0lsK6Kfk1A8e+SzUdL/k+CQDICblS92wVRD66IiIbrZvMBcey/XbB8shrCEAQg0BQCB8jRiGPTT5sCAD+bTaD/doHPaCMacxds3il2/bcLuMrS7N8F3kOgCAE/0TTi+PbOIpmzTTkCXbwFUIaQO62nSp5hYG0vcWYrCGOkv2mf0yTfMjhJulIiQQAC7SHg/uQ6yYOwUydP+/5daqNdt0cAUK4FrKDNny31AgIHB5zZlmPY29q3WxwM9HRL7wv+QwACjSSwlbz+TYDnf5XNx0i+skCCQG0IrClPeuMHrtTriEtfXbB5v9j1jx9YTu9JEIBAswi8S+5GHK/+p1kY8LarBPrHD9wc9GOI+IHVzeYCsesfP8CVqq7+oih3kwj41l7EseQ1TYLQJF85sMbVlh+H6UtivdsFO+g1Z7bj8b5Ru50h+XaBRwPPk0gQgEB9CHhslE96fJs0dVpPBq9JbRR7EMhJYLYyczDg1ax8udvrWkdEy12w2b9cccTzxlU1JAhAoASBPbRtxLHnDyV8YFMINIbA2vK0N37AZ7QRP54u2Jw+foDHHTfmJ4CjLSLw8aBj2GdaxIiiQGAggf7xAzzuePyAiMcdD2xifAGBMAIe/R9xwrF3mMcYXoIxAPVsBLPk1pZSb/zATnrNg3jGqytPIfqF5PEDP5a4lygIJAgkJLCGbPl3tlRCmzZ1r+SVWh3UkyDQWQIrqeT94wciIu2u2OwfP8Djjjv7k6LgCQm8QrYijh+nJ/QRUxBoDYH+xx37jDbix9cFm/eJXf/6A1xlac1PhIJkJPDfyiviePGejGUgKwg0lkD/+AEedzz+wWi+WkD/+gONbRA4DoGMBOYpr4gA4OkZy9DJrBgD0L5qn6Ui9Y8f2Fnv/RmpPAE/7vhMyeMHTpS8zjkJAhBYRGAzvbxk0dtkrzwQ2mMLHkhmEUMQ6CCBlVXm3aXPSb7/HRGpd8Vmb/zA88WRh0IJAqnzBN4qAhG////rPFkAQCCAQP/tAh53PP7Bi8cdBzROTDaOwA/lcUQA8MbGkWigw9wCaGClJXTZ03Z43HEaoH+TmdMk3y7wOIK5EgkCbSbgW4s+iYiYTbOh7PqJoSQIQCATAa/j7dsFveWKff8tIrrvgs3e7QKv9vgoiQSBthHYQQWK+C3T8betpVCeRhJYU173liu+Uq8jfuxdsDl9uWIeCtXInwNOTyPwwaBjwn9Oy4e3EIBADQj0jx/wk7+60HlHlHGB2PVPN+RWXA0aNy6UJnC29oj4fbyotCfsMBYBDjxjYWMnEeBxx+mawU0ydbrk8QM/k66SSBCoMwE/hdPt1uMAUibfdlxL8gkGCQIQaAgBHnec7myof/wAjztuyA+gY26+UOWNOPv/dcc4UlwItJKAo/je+IF5eh1xsOiCzenjB3jccSt/Lo0r1BeCftP/3jgSOAwBCIwk0D9+gMcdjx8Q+clojB8Y2dzYIJjAn2U/IgDfMdhvzPcRYAxAHwxeZiMwffyAf/Sc2Y6Hv/9xxz+RiavHM8NeEChMYANtObfw1sU39OBYP/73nuK7sCUEINB0AiuqAP3rDzyo9xFnF12w2T9+YNWmNwz8ryWBA4N+n37eBgkCEOg4AR53nCYAuk/tiMcdd/zHFFD8b8tmRDD9tgBfMTmEALcAhsDhq9oQ8PgBXyGw9pQilh6V2dYnjx/wKGtPN7QukEgQKENgKW3s205+Ul/q9CQZ/GNqo9iDAATaQ8DzjreRDpE8GO5eKeJspAs2rxe74yVf0n2sRILAKAJP0wYRv41rZJcT0lH0+R4CEJhCYCW985WB3vMLIg5OXbHZP35g5SmUeQOBhwn8m/5F/B6+AmAIQAACkxLon27oJ/RFHKy6YLN//MD24uhLvyQInCYEEe3/laDNT4BLLvmZk2M+Au60eNxxGt5+7OupkscO+NbLXInULQJe7dNL9KZ+mJUDCt+CukEiQQACEAghwOOO05299d8u4HHHIc21dkb3kkcRZ/+/rV1JcQgCEGg9AY9k7i1X7DPaiINbF2w+IHb90w2Xb33L6WYBPx30G/lEN3FSaghAoE4E+scP+FJnFzrviDLeKXa+TeCZGp6xwfgBQWhB+r3KENFentMCNo0sAmMAGlltOJ2BwPTlindQnqnvfWYoRi2yuElenC55/ACPOxaEBiYvznWdlLrPuFs2vfyvg0YSBCAAgVoS4HHH6c7++scPrF7L2sap6QT21wcRZ/8OCkkQgAAEGkVgLXnbGz9wlV5HHBy7YPN+sesfP8BVlnr+DL4e1MZ9m4hUEYHUl3MqKgbZQqByAh4/4AWJLN/T5EE8gjBG8qXgX0k+M7QulBwIkaoj4H7iWukxAS54jIjrmFQBAQKACqCTZesJTB8/wOOOx6/yG7XrGZKDAR53PD7HSfZ8inb+3SQGBuzrhbrWlvz0TxIEIACBVhJYUaXqX67YB7wuXN6PKGP/+AGusuT5ubwjqL0el8d9coEABCBQHwI87jhNADR9/MCy9aniVnniKy8RwdzrWkWpgYXhFkADKw2XW0XAv8EtpD0kXyXwdEPPOCCVJ3CbdjlN8u0Cr0NwmUSajIAHZXoZaF/FSp3Wl8F5qY1iDwIQgEBTCcyS4x4Y5dHR7sTulSLOvrpg83qxO146UFpXIpUnsLd2iWgrfyrvCntAAAIQ6BaBlVTc/vEDEQfjrtjsHz+wSrea0dil/aL2jGgfnx/bI3aEAAQg0FECnorl9QeOlTyKOuLg3AWb94ld//oDy+g9aSoBB5+3SBHt4Z+mZsU7CEAAAhAoQ2ApbbytdKjk+953SREH6y7Y9H3ub0u+XfBEibTEEgcLQkTdO/jiCgwtDAIQgEBCAjzuOF2H1X+7wGvVdy25LV0lRQQAZ3YNJuWFAAQgkJvAmspwP+lLUtTBPKKDqJvNB8TvPOkj0q5SF5Yrfq/KGVUPtk2CAAQgAIGMBHxp25e4PTL+ZinqAN92u21/3PGT1DYibydtIfskCEAAAhCoiICXK95OOkw6Q7pHanvHHVW+v4rdN6XXSY+Xmpw88M/L/kax+kuT4eA7BCAAgTYSWFGF8pzvT0u/l6I6gC7YvVT8jpReIDVpuWIHhSdKkXXk9kWCAAQgAIEaE+Bxx2k6wvtVx/3TDes6fsCd/9ekyM7ftp8qkSAAAQhAoEEE5sjXt0o/lOZL0R1FW+2bnc+y3y49WapDWllOnCBFMz+7DoXFBwhAAAIQGJ+AF83ZXvqAdJbked3RnUdb7V8ndsdK+0uPlXInByGXSDn4viZ34cgPAhCAAARiCawi8/tKn5dydSY5Oqwq8rhYDD8r7SOtJEWl5WX4fVKuwZ/XKi/nSYIABCAAgRYTeJzKdoD0DekGqYqOtA15+kFQv5DcUT9L8oOiJk2zZeBN0tVSTkZvntRx9ocABCAAgWYRWFLubim9U/qJtEDK2fG0KS8/7vj7kjvTzaSiyQMP95COkm6VcjOZpzzrOvhRrnU3+cdJggAEIJCLgDsCn836CYfWNpJHoJPKE/ibdvEKhb7t4jN6B1fu4D2lcx1pPWkryQGYP6sqeX2Er1SVOfkOJkAAMJgN30AAAvEEfJ/bCxL1BwTxuZJDLgJnKqMdJV91INWMAAFAzSoEdyDQcQJ+3LFnGDgg2EeqYmS8siUlIOA1ELaVLkpgCxMQgAAEINAhAkuprL5FcIh0snSXlPv+NfmNz/wDqi9SjQlwBaDGlYNrEIDAFAJ+RO2zpd7tAq8q5yCBVD8Cv5BLu0m+CkCqKQECgJpWDG5BAAIjCayhLXaRHBB4lPsTJFL1BG6SCw7OPPefVGMCBAA1rhxcgwAEShHYWFv3ggEHBquV2puNUxDw2gV7SqenMIYNCEAAAhCAQFkCnlrYGz/wc72+W+J+fiyDB8V4f4kEAQhAAAIQqA0Bz4PfS/LjaP28e3dWBARpGXiwJgkCEIAABCBQawJryruXSkdLV0kEA5MxeL8YkiAAAQhAAAKNI/BEeXygdLx0i0RAUIyBr6T8q0SCAAQgAAEINJ7ALJXAixEdLp0p8bjjmYMBj6vgnr8gkCAAAQhAoJ0EPH7Asws+Kp0vMX5giSU81W9HiQQBCEAAAhDoDIHHqaSvlf5H6uLjjk9Tuc2ABAEIQAACEOg0gf7xA7eJRFvHD3gpZo/09xRLEgQgAAEIQAACfQSW1eudpQ9J50heCrcNAcEpKscciQQBCEAAAhCAQAECftxx//iBpgUDV8t/BvoVqGg2gQAEIAABCAwj4Mcd99Yf8Fr5dQ0I5sq3t0l+ABMJAhCAAAQgAIGEBJaSra0l31f3csW+x151QHCWfHiVNEsiQQACEIAABCCQgYDPtn274GPSBdIDUo6AYJ7y+aTEPX5B6FLiaYBdqm3KCgEINImAH3e8m7SrtL20uZTimD1fdryewUnSjyU/G4HUQQIpGlMHsVFkCEAAAtkJrK4c/YRDBwLW4yWPKVhHWkHygkWeheCpiPdId0jXS1cu1OX6f550ieTFjEgdJ/D/AGm2P4SNzOd6AAAAAElFTkSuQmCC;" parent="1" vertex="1">
          <mxGeometry x="465.56" y="477.51" width="42" height="42" as="geometry" />
        </mxCell>
        <mxCell id="Sfq1RslhefIw9rJTZr1K-23" value="" style="shape=image;verticalLabelPosition=bottom;labelBackgroundColor=default;verticalAlign=top;aspect=fixed;imageAspect=0;image=data:image/png,iVBORw0KGgoAAAANSUhEUgAAAgAAAAIACAYAAAD0eNT6AAAAAXNSR0IArs4c6QAAAERlWElmTU0AKgAAAAgAAYdpAAQAAAABAAAAGgAAAAAAA6ABAAMAAAABAAEAAKACAAQAAAABAAACAKADAAQAAAABAAACAAAAAAAL+LWFAABAAElEQVR4Ae2dB7gkRdWGQXLOWWAByRkRUNICEkygqIgKIgooIEpQUAwYSIpkAyYERJQgqEhQRFBBckaC5Jxzjv//frLr3Ht3cld1V1d/53m+3bkz3afOeaun+0x3dfXkk9lMwARMwASaSmBaEl8ZrYLmQXOg2cf8r/emQY+iR9ro4Qnv3c3/V6PXkK0GBCavQYwO0QRMwARMoDiBN+FiSbQ6Wm2CVuD/qVAoewZH/0TnT9CV/O+CAAgpmguAFHvFMZmACZhAGAKL4ubdE7Qm/88cxm3fXp5mybEFwet9r+0FTcAETMAETMAE+iIwNUttgA5GN6H/S0y3Ec+uqOxChCZtJmACJmACJpAXgQVIZ3t0GtIp+NQO+u3iUZxHosWRzQRMwARMwARMoA8CU7DMWmh/pEF37Q6wdXlPlwPOQBshX5IGgs0ETMAETMAERhKYiz8+gX6LHkd1OcAPEucN5PVRZDMBEzABEzCBxhLQr+G3oX3QJUi/lAc5mNZ52bPIdRyymYAJmIAJmEAjCMxKllugY9FDqM4H8aKxP0f+eyBd7rCZgAmYgAmYQHYEViCjL6N/oFdR0QNnbutfCZO3IpsJmIAJmIAJ1JrAjES/GfopugfldsCOkY8KI93WOAOymYAJmIAJmEBtCGj2vd3QOeglFOMg2QSfmkNgaWQzARMwARMwgSQJaH79TdARSAetJhycy8pRd0CsjWwmYAImYAImkASBcUSxE/oT0gC2sg6ITWznRfh+GNlMwARMwARMoHQCeoDOeugg9G/UxANxlTnrtsjdkc0ETMAETMAEohOYjxY+jX6HnkJVHgDd9hv8D6Mf9JRDmwmYgAmYgAkEI6B70N+B9kW6Hc0H3TQZnELfaNyFzQRMwARMwASGJjAna34cnYAeQz7o14PBH+krnwkAgs0ETMAETKA/AppyVxPNfB1dhF5DPujXk8GB9J3NBEzABEzABDoSmIVPPoR+iR5APuDnw2Ar+tPWJwFVvzYTMAETyJ3AciT47glak/+nzD3hAfN7muUvRReja5Euf+iee+kJpAmM5kBzIV0mmfi/Jjkaj8Q3heOJbhFUPHqAkq0HgRQ6rEeI/tgETMAEBiagaWPXRxMP+gsN7CHvFXQXg2Ym/DP6F7oJ6da6YU1FwbpoPNoAVTljn87qvA3dh2wmYAImYAINILA4OX4B6aCmX4I+tT+awXUw+S7SgTr2GRDdPXESquoBR5fT9nTIZgImYAImkCGBachpI6R7wf+DfMAfzeBZmGh0/GdRVWdA1O73kC4jlN0/J9KmzQRMwARMIBMCOqDogKYDmw5wZR9UUm/vFpgcjlQYqUBKxXRJ5gD0CiqT4ZapAHAcJmACJmACgxHQqep1kU5d6xR2mQePOrSlSx265KFLH7oEkrotT4AXobLY6pHLfoxw6luF4zMBEzCBCQTm5f9t0cnoSVTWwaIu7dwNk6PQpqiOB7c3EffOqKzplDWTo80ETMAETCBBAjogrIG+jTR4S6PR63IwLiNOnTY/H+2JdLtdLrYgiVyDYjN8gTYWyQWa8zABEzCBuhOYnQQ+io5Hj6DYB4G6+X8QJr9EH0azoFxtZhL7K4rdP6flCtB5mYAJmEAdCKxMkF9FF6Kqbg+LfaAZ1r+mINYkPN9Ampq4SXO0TEW+v0LDsut3vQ1pw2YCJmACJlACAf262xz9HN2P+t1RN2U5zbZ3AtoKaSKdptv+AIjZ9zfgP/b8B03vQ+dvAibQYALLkPsX0d/QyyjmDr2Ovq+CyX5oTaTHDdtGE9CcDjH7dZfRzfkvEzABEzCBYQlMz4rvQT9Ed6CYO+86+n4aJqeiT6P5ka07ARVFuq0xVl/f3L15f2oCJmACJtCNwGJ8qF9SZyGNsI61s66rX51q/j5aH+n6tm0wArOy+E0oVv+vNVg4XtoETMAEmktgalJ/JzoExdwxx9rhx/b7PFzOQLq33bebASGALY6Px1GMvjs6QHx2YQImYALZEngzme2Afo+eQTF2xHX2eRtMjkTvQn7oDBAi2Kb4jLGNaHueMUK8dmkCJmACtSSga69rI83XXsbkLDF27DF9vgSXv6Ld0VLIVg6BM2kmRr9+qpzw3YoJmIAJpElgbsL6BNJT055AMXa0ufjU/PU5T8hDeknaEkSl4iv0dnRBktk6KBMwAROIRECTy6yGvokuRa+j0DvWnP1pmmLNYGgrl4AeJxxju1JxYTMBEzCBbAnMRmYfQceih1GMHWmTfF4LQ505sZVHYCaaegCF3s50uctmAiZgAlkRWJFsvoL+iV5FoXecTfenOyEWQLbyCHyOpkJvd3eWF75bMgETMIE4BDSi+f3op+heFHpHaX+TMtVdAOOQrRwCmhsgxpwTy5YTvlsxARMwgXAENBJdI9I1Mj3GICkf9Cc96I9lcjfsdb+6rRwCv6aZsX1Q9O8vlRO6WzEBEzCB4QlMy6q651z3nuvXZ9EdX27rPwmTk9FxJbPRtWn/igRCCaaZFUNvt+eVELebMAETMIGBCWhWOc0up1nmnkehd35193c9TDRCfF00JZLpTgcVAmXm9gjt6VHHtrgE1Le3o5B9+wr+fHtn3H6zdxMwgT4IaN54/cr5ProBhdzR5eDrOZicjj6LFkKdbBo++CMqM2fNo7BGp4D8fjAC38BT6H79ULDo7MgETMAEBiCgJ8R9GumJcU+j0Du3uvu7FSZHoI2RLoP0ayqmTkJl5q8pZtftN0AvNxSBFVgrdJ8ePVQkXskETMAEBiSgKXf1LPj90FUo9M6s7v40oPEctCsqOlGLWB+LymSiSzUbIVs8AvfgOmSfahyHLi/YTMAETCA4gTnxuBU6AT2GQu68cvClHbpuYdwM6ZbGkKYd+1GoTE4v0p4eZGOLQ0DbSuj+XCVOqPZqAibQNAI66KyKdL3yYvQaCr3DqrM/TU70T/RlpFO6ZdihNFIms5dpb4syEmtgG5rzInRffq2BHJ2yCZhAIAKz4OfD6JfoQRR6B1V3f5qGWLfoaVpiTU9chemyS5kcVehsU0Wimbeps0Sh5764KHNmTs8ETCAwgeXxtxf6O9LtRGUeXFJv63V4XIa+iVZDb0Ip2FcJokx24qC7FmxhCWicSMh+1Fm6OcKGaG8mYAI5EZiBZHRtV9eU70Yhd0A5+HoCJnq08DZoHpSq7UZgZfNWm7ZwBGL04cfDhWdPJmACORBYnCQ0Iv0vSIO7yj5wpN7edTA5EK2DJk7Gw8vk7TNEqF/nZfLV2QdbGAJL4iZ03/06TGj2YgImUFcC0xD4xuhwdAsKvZOpu79nYfIHpAPogqjO9gmC13X6MvtE4xBsYQiEnhL7UcJK5VJVGEL2YgIm0JPAwiyh67SaZU6zzZV5QKhDWyqEDkO6v10FUk6mkfoasV9mP+iOBFtxAkfiInS/vb14WPZgAiaQMgGdqh6PNI/89Sj0TqTu/nSp48/oC0iXQHK395Fg2Zd3NI7Ek88U27L0cKzQ37V9i4XktU3ABFIkMC9BbYv0oJinUOgdR939aVCjDkoa5KjBjk0znd0o++zPsbSp2QptwxGYjtU082LI796Vw4XitUzABFIioGt5Op33HXQFKnvAV8idUixf/4KLbmPU7Yy2NwYylv08Bj2vYCrDH5rAGawZ8vuh/cR8Q0fjFU3ABCojoPt4P4aORxrQE3LHkKMv7TynRbYWgdV5qdsZy+zvP9JebmMrWkTjvto5Ql99Km7I9m4CJhCCgK6hag5vTeOpX7OecnfwA9e5cGviKX/S7mgr88kjqMwiQLeZTt8xIn/QicAifBC6n07p1JjfNwETqJbAzDT/QfQLdD8K/eVvor8L4SiuthaBZXj5ACpze/g77c3UCsGv+iRwI8uF7CeNEfJlmT7hezETiE1AO+MvofNQ2bdshdyxpOzrMtjOjmwtAroDQoMjy+y3i2lv1lYIftUHgYNZJnQfrddHu17EBEwgAgGdCn0v+hG6E4X+cttfe6bXwnpuZGsRWJiXoSec6bX9aSS6HiFt64/ABizWi+mgnx/UX9NeygRMIASBxXCyCzobvYAG/cJ6+TDMboL9AsjWIjA/L0OfZu61vWp+Ct26autNYGoWeQb1YjrI5//u3ayXMAETGJaARj1viDQr2s1okC9nE5Z9DiYaHa4ZCo9BZeasX7zjkK1FQGdGrkFl9sN/aG/BVgh+1YXAaXwWum8W7tKePzIBExiQgHZmO6DfI80pH/oLW3d/mnL3cLQxUoE00TQg6VxUZn730N4SEwPw//8loDESl6Iy++FO2lsU2boT2J6PQ/fLjt2b9KcmYALdCGjK3XXQgUjXl0N/Qevu70WY9Dvlrm7VK7sIeIA2l0O2FgHdLXEBKnPbu5f2lmqF4FdtCOiyVeg+Ob1NO37LBEygC4F5+GwbpOfClz2hSugdQAx/d8HlKPQ+pIP6IDYtC2vynhhxdfKpCZVWGSTIBiyrfvsr6sQsxvsP0d4KDWBbJMXQl2h0GU7fOZsJmEAHAppyd3X0LXQZ8pS7ow8Mr8DkfLQnCvFrWgOefodiHGQ6+XyS9jStsq1FoIpi7DGaX7UVgl+NIXAAf3fahod9f5MxbfhPE2g8gdkgsCU6Dj2Mhv1y5bqeTp0fjT6EZkGhbQocarrjMvlplPV4ZGsR0NiMsouxp2hzzVYIfjWCwNq8Dv2dOGKEf780gcYSWJHM90a6/vkqCv1Fq7O/1+BxEfo6eiuaHMU2nXn5GSqT2/O0t3HsxGrmv4piTANo168ZpzLCVV+Evux4axmBuw0TSI3ATAT0AaSDjAYhlXmgqUNbOh37a/RxNCeqwlRo6BdKmbxeor3Nqkg24TarKMY0V8a7EmZSVWgaexT6++C7YarqTbdbKoGlaG13pNHmnnJ39I5EYxs0Q9u+6B1IO/1U7EACCb3T6+bvFdrTJSBbi0BVxZiKdFuLwDa87LbtDvPZri33fmUC+RCYjlTejX6AbkfDfDlyXkfXW09Bn0LzoZTtGwRXZl/osse2KQOpKLYqirGPVZRris1qwiYV6yG/C+ekmKhjMoFhCCzCSjujM5Gu6Yb8ouTgS1OAHoTWQxrkVSf7IsGW2Qfa0e5UJ0AlxVpFMaYi1fYGgdCTNemy14yGawJ1JKDbxjZAB6Oy5zMv82A0bFu611cTfuyIFkZ1NxV3oX8B9WKrwsM2mkAVxdjnRofQ2L++Sea9ttlBP/e4l8ZuTvVLfAFC3g6dip5Gg27suS+vkb0aPKcR7dOi3Eyn5nWKvsx+1K9e22gCOjtSdjH2pdEhNPKv1cg69Lb/k0aSdNK1IKDbX9ZC+6OrUeiNv+7+NOXuX5AG8zRlRK8G6WmwXpl9p+vfttEEqijG9hkdQuP+0gDdh1HIbf+exlF0wkkTmIvotka/QY+jkBt7Dr7uhslRaFM0A2qivZ+kdf2yzP7UmZXJmwi7S85VFGPf7RJPEz46jiRDb/fLNwGcc0yTgHaqq6J90CWo7FO8ob9MMfxpgqKvIX9RgTDBNuH/sgd7/pw29SvM1iJQRTF2JM03tRhT0RV6H/PlVnf6lQnEJzArTWyBjkEPodAbdI7+/gCnaZCtRWA8LzWVb5n9rUmSpkS2FgEXYy0WsV/NTgP6QRBym/9H7KDt3wT063UvpI2t7Gu4Ib8sVfr6M+ymQ7YWgbfz8klUZr/8jvZ0F4qtRWA8L12MtXjEfHUBzkNu79of60eZzQSCEdD9pbrFRKNMNdAk5AbbZF/nw9L37gJhhL2V14+iMreLM2gvxzstRmAd+KWLsYGRDbXC3qwVelvXGVmbCRQioJHou6Jz0Eso9EZqf28wvRi2rtiBMMKW4/WDqMxt5Fzaa+pAzBHoR71chb9cjI1CEvyPlfAYejs/JniUdpg9Af0C2gRphPStKPRGaX+dmWr+/jmRrUVABWjZZ5t0OnbmVgh+BQEXY/E3g/toIuT+UWOxmjqwMn5vZdTCwuSyIzodaba5kBuhfQ3G83r4z4tsLQKL8PJ2VOa2dBntaXCWrUXAxViLRYxXuiMl9Db+thiB2me9CWje+PXQQejfKPRGV3d/enzp2WgXpJ2erg2XmdN/aG9BZGsReDMvb0Zl9sO1tDd3KwS/goCLsXibwea4Dr197xMvXHuuE4H5CPZT6BSkJ8eF3tDq7u9OmPwIvRdNj0bajPxxOSozxztob9GRQfj1ZPPA4DpUZj/cRHsLmP0oAlUUY9cQQe7F2Ezk+DIKuX1fMqrn/EdjCLyJTDWCd1+ka8tlz/MdciOO4UtftL8hPQhlGdTLZmGBf6EYsXTyeS/tLdUrsIZ9Pgf5XoE6MYvx/m20Nw7ZWgSqKMZupPn5WyFk+Ur7pJDbsCZhmytLUk5qEgLaOX4caWKTR1HIDSkHX/fD5Bfog2iYQV46E3AeKpOFBvKsgGwtAlUUYxqIuHgrBL+CgPY3ZZ8ZUzG2cMb09YMk9P5l64x5NT41nZ7cHenXqaq90BtPnf2Jx4Xoq2hlNDkqatPh4CxUJpfHaG/VooFntn4VxdgDMFw2M45F06miGLuboN9SNPBE19fZyND7Fj2DxZYRgTnJ5bPo78in9kd/YR6ByfHoYyjWKO6p8X0aCv1F7eZP4zbWRLYWgSqKMZ1ZW6UVgl9BoIpiTGfz+rl0V8cOupOgu+0LBv3scfxNUUcQjnk0Ad3ScSJ6BQ26EeS6vAognYb8NloDaexDGTYljaiyLpPrs7S3fhnJ1aiNKoqxJ+Gjbc3WIlBFMaZiXxPo5GYajBx6v7JWbpCako9OW78P6dd+6I2irv60Az4ZbYvmRVWZio2jUZkcX6C9d1eVcKLtVlGMPQOL8YnyqCqsKoqxJ0h29aoSjtTue/Ebep+yf6RY7TYigQ/hW7chhd4Y6ujvOjh8F62LtMNPxVSg/RCVyVRTMuueYVuLQBXF2PM0v3ErBL+CQBXF2NO0u04G9Kchhw3RUSj0/uTqDPg0JoXlyPRvETaC0BtVTH863f1H9Bm0EErdDiLAmDzG+tZlII1zsLUIVFWMbdYKwa8gUEUx9hzt6uBZN1uQgHdAf0Da5439nof8ewH82xImMCuxHYFeRSE7vi6+/kPeh6GNkKrhutm3CLhM1rrL4dN1g1RCvFUUY1uWkFedmqiiGHsRQLpcmrLpDInOVhyIrkVl7i+2oz1bogR0XfchVOYGUXVb+sKejT6P3oJysL1Iokyur9PeLjmAC5xDFcXYtoFzyMFd2cXYy0D7cGLg5iGebZAGcGvMQpn7h5Ft6c4lW2IE9Ev3cDSyo3J+fRe5/hipUp8e5Wg6IOvAXGY/7pkjyII5VVGM7VQw5hxXL7sY0xnUrSsEqUsgqyPlfRkqe1/Qab+j4sOWEIGliUWDMzp1WA7v61r1eehLaFnUFNPpNp2iL7MPtcOxjSZQRTH2xdEh+C8IVFGM6dp6WTYbDeky0HHoYVTm936QtqYjNlsCBLYgBo0iHqTz6rLsA+R1NNJdDMNMuctqWdjHyaLs8Rw65WobTaCKYuwbo0PwXxCoohjbNSL5FfG9N7oAlf09H/ZYMI5YbRUT2J32UzktNOyG1G49nd5fFU1eMd+UmtdzB3Rdsh2vWO/9gPbcB6O3giqKMQ30so0mUEUx9pXRIQz910ys+QH0M3QvivX9jel3NeK2VURA14YORTE7uGrfvyQ/Tzs5egPTAM8XSu73X9Cetjdbi8DmvCy7GNNdPS7GWn2gV1UUY98ZHULff+lpnPrBdi7S/BtV71+Ltr8SOdgqIKDBfiejoh1Yh/V/S55TVsA45SY3ILhnUZn9dwLtuR9GbxVVFGP6xehibHQ/VFGMHTw6hLZ/6Rq5thGdRbsdlfl9jd2WztDaKiCgX8S6BSN2B6fk//fkW8d7+WNuHmvi/KmStwNtd1PHTKqGvqsoxo6Hk4ux0RtLFcXYYaND+O9fi/DvzugMlOu4LB0b2uXO27bYBDQgLqWDc1mx6B5/jzodvXW9jT8fK3l7OMv9MLoT+KuKYux3tOtibHRXVFGM7UEI6yOdEbgRlbU/rLqddcjVVjIBjcquuuOrbP988tfjQm0tAivw8iFUZr/8jfbcD60+0KsqijH9ypx2dBiN/6uKYqzM714KbekMlK1kAmXf+9rvhvYoHPpdNsRyF9HerCWzT705DS66D4Xg26+PC2lvltTBlBxfFcWYBpTNUHKeqTenu4fKPjPW7/em7sv9C7a+HFvyN+A9tPc6SmHj0ZS7f0FfQG9B2hguQGXGdiXtzYlsLQKL8fJOVGY/XE57cyBbi0AVxZi+f02eI6NFv/WqimKszO9eFW3dAd65W4j9qgwCC9NI1dWsBrMchzZD7X5tzMX7/0ZlbpTX0968yNYisCAvb0Fl9oMerTxPKwS/gsCi6E5UZj9cRnuzI1uLQBXFWJl9XlZbz4D028hn/FrbVimvNMjnUlRWR49t51ra/hzq55S7fpFfVXKs/6E9HfRsLQLz8bLsYuwm2nxzKwS/goC2S22fY79TMf/W99W/0IAwwqooxmL2cZm+H4GjBjfqB56tAgJH0maZHa62nkW/QGugQU2FwsWozJjvoD19yW0tAlUUY7fTvG6BsrUI6AxVFcXYAq0Q/AoCVRRjZe4DQ7Wly8y6rKdf+9r/vwnZKiKg6/6hOrYfP+r8o1A/v/a7IZmJD/+O+mkz1DL30t6S3YJq4GdVFGP3wHmJBrLulrKKMY1ZCbWt9+PnNtobh2xv3DqsOQJOQv2wa9oyT8LlZLQtUsFqS4DA9MRwByprY7yVtsajUKb4NVCwrPjVjm6FWx7ZWgSqKMYepPnlWiH4FQSqKMbupt3FG0pfZ6J2RmegnCfjGXb/qnE730XroimRLTECBxDPsJ07yHqv0c4hSAfs0DYNDv+IBomn6LKP0d6qoROpub8qirFHYbZKzbmFDr+KYuwBklg2dCIJ+tNYKU0CdDBq0mQ8/e4vdVlX++LPooWQLWECyxDby6jfzh12uRtoQ9d5YtpUOD8JDRvjMOvplNY7YiZVQ99VFGPqh7fXkFXMkFWM/RkNs10Pu06uxZjGOWyHTkVPl8x02L4ocz3dDXQY2gjp+2+rCYF/EGfsDeVftDFzSTymoJ1jS8hpJDNVvOuXlF9dmlExdiIaySn2a90+NB7ZWgSqKMaeoPnYxX4rwzivtB9ZC+2Prkaxt926+X8RJiouv4CaeumH1OttmxJ+7A3vn7Sh05Fl2uQ0dhSKndtI/y/Q3rvKTLIGbVVRjOka7CY1YFNmiFUVY+uWmWSAtnT72dbot+hxNPL77deTTXYXTLRffR+aAdlqTuBS4o+5YZ+H/yo3lEMj5zeW3Uu09wFkaxGoohhTP2zWCsGvIFBVMbZxwvS1bb4N7YMuQRqjNPY73eS/X4HH+WhP5IG2QMjJ9MWMuXH/Ff+6Blm17UcAMfMc61tfmo9VnXSC7R9SQT9smSCHKkNyMfbGHRJb0AnHoofQ2O9v0/9+ACa/RB9GsyBbpgQ0n3esjV235E2bELevRsy1HUP9kvh0QvmnEsq+FfTDtqkkn1AcTSvGVoD9l5HGO72K2n1nm/qe9lUXoa+jtyIVibbMCaxHfrE2+PvxPXuC/HaLmHM7lpro6HMJcqg6pL0r6Iedqk46wfarKMY+WRKHGWnn/ein6B7U7vvZ5Pceg8kJaCukiaNsDSNwKvnG+gKkPBDuM+StA3Os3Nv51fUz22gCu/JnO1Yx39tjdAj+CwI5FWNLko+K/HOQxoDE3Jbq6PtKmKjoewfSeBBbQwmo4nsZxdiIf1IDpp8gxrJPA36zBlzKDrGKYkynOW2jCdS1GNMlRv3YOBLdhmLsz+rsU3MV/A7pUuT8yGYC/yUQ6wt/K96rHPE/SPdqgEusIqjTTuN7gwTYkGWrKMYObAjbQdKsohj7xiABTlh2HP/rcs6fkG737PRda+r7N8DkIKRLvLr102YCkxC4mndCf0E0kGTNSVpK+w3dy/oiCs2imz/9WvEgm9HbRRXF2OHuh9GdwF9bo7LPjPUqxnQQ0wRb30c6uHX7bjXxMxVBKoZUFI1DNhPoSmBlPo3xRdGo4jrahgT9HIrBpJPPX9Dem+oIK2LMVRRjP3M/TNKjVRRj3x4ThU5X67S1xil5yt1J90263KEfEpsgXQaxmUDfBGLcE69T6XW+xrQO8Ze9o9EI3Cn77rVmLFhFMXY8aD0gavT2VUUxthchaN90FepUODf1fQ1o1MBGDXDUQEebCQxN4GLWDP1F+s3Q0aSz4uqE8kQENt1Y6xfO1OkgSCKSKoqxU8h8qiSyTyeIKoqxbt+Vpn12D5vCT9H7kW5ptJlAYQKa1SnGNb63F44sDQcrEcYjqMydzZm059N4o/u/imJM11HdD6P7YW3+LPvMWJnfvZTa0n5ZkxRpsqIVkM0EghPYFI+hN/rLg0dZrcNlaF4TGYXm1M3f32ivLndPlNU7VRRjf3U/TNK9q/HO46jb9uvPhuOjaYiPRR9BsyKbCUQloJHPob+sn4gacTXO30Kzd0dg1Y39hbTnebdH93cVxdg/CWHm0WE0/i8VYw+jbtuvP+vN53UYXoL2QW9DvhsICLbyCFxJUyG/qKpgpykv/FJbWpjWbkUhefXypbMps5eaZfqNqRi7C/ViF/LzS2nP/TB626iiGAvZp1X50tmT3yL9UJp7NFL/ZQLlEdBtZy+gkF+EOsz6V4Sw7my4MTCzXvyvpT3vKEb32sL8WXYxdo37YXQn8FcVxViv70uKn2vb2R+thXyHCRBs1RNYjBBCf1k+VX1a0SPQwVhf6NDsuvm7ifYWiJ5ZvRqoohhT8Vfn21tD9fD0OHov+hG6D3Xbdpv42TMwOQ1tj/y9BYItPQK6tzf0l1OnBZtgOh2s08Kh+XXzp8k+xiFbi8BcvLwadeMW+jOdeVi4FUJjXunX/ufR2Sj0mcPQfVSFPxXph6ANkG/lBYItbQJ7EV7IL8pT+GvSIJaZyVcDxEIy7OXrHtpbHNlaBGbjZdnFmAaE6oCYs2ksz4boUHQz6rVtNu1zFUFnos+hRZHNBGpF4JdEG/JLq5mpmma6Ve+vKCTHXr4eoL1lmwa6R75VFGO6NTS3M14LktMO6A/oWdRrW2za53fA5IfoPWg6ZDOB2hI4g8hDfoH3rS2JYoFrshhNGhOSZS9fj9LeKsXCzm7tKoqxR6CoW+LqalMS+DroQKTBpr22u6Z9/jJMzkV7oKWRzQSyIfAvMgn5hdaYgqbaVCR+CgrJs5evJ2hvjaYC75B3FcWY+mH1DvGk+PY8BLUNOhEp9l7bWdM+vw8mP0ebo5mQzQSyJHADWYX8cmsiiybbFCR/PArJtJcvjTZet8nQ2+ReRTH2NHHol3SKptt9VaB8C12GNPlMr+2qSZ+/Co8L0N6ozmdzCN9mAv0T0DXMkF90n5J+45G+PwvMtVcfPU97G/ff7Y1YUsXYr1AvdiE/f472NGguBdPAyC3RcehhFDLPHHzp0o22j4+i2ZHNBBpHQAeOkF/mFRpHsH3CuhPi8MBse/XTS7S3WftwGvuufvmWXYy9SJtVXQpbkbb1K1a/ZvWrttc206TPddbjcqSzIDobom3DZgKNJhB6J7Fso2lOmrwGVpW5k32F9j4yaRiNfqeKYkwDxz5cAnVdn/4AUpFzLypzW6tDW0/C5CT0SaRxDzYTMIERBHT9OOQXeakRvv3yDQLfCMy4V3+9RnuffKNp/zuCwAG87sUu5Ocqrj8xov1QL/Ud2x1pZLrO+oSMOQdf18Hku2gdNCWymYAJdCAQ+trgWzq00/S3vwiAMneuOt25Y9Oht8n/6xX0w2faxDHIW9Ox8LvRD9DtqMztqA5taa4CzVkgzgsimwmYQJ8E7mK5kF/yRfpst4mL7UTSOjCH5N3Ll+5dto0mICa9uIX+fLfRIfT8S9+jnZHm6Qg9Tid0blX4+w9cDkMboWmQzQRMYAgCmrs65Bd4/BAxNGmVbUlWp+hDMu/lS796baMJVFGMaXBeJ5uaD9ZHB6MbUa8+bdrnGlh5Nvo88llGINhMIAQB3RMccmeya4igMvexJflpsF5I7r186fq3bTSBT/Jn2cXYLiNCWIDX26FTkeYQ6NWHTftcZyd/jHRHxfTIZgImEJjAyfgLuWM5JnB8ubp7P4mVPYBLp0wnzxXokHmVXYxpYOBR6GoU8nuXgy8VxeehLyHfTQQEmwnEJhD6NrWrYgeckf9NyKXs67s/pU3f/zx6I9LcCWUXYzkcsEPk8ADsj0YfQrMgmwmYQIkEdAoyxBd5og/tSDUNq60/AuNZLPStmBP7otP/mv1siv7Ca8xSG5Np2cVYp/7J+X1dcrkIfQ1p1lCfkQKCzQSqIrAeDYfe4Wg2Mlv/BN7Ook+i0P3QzZ8u/bhQG91H4/mz7GKsWx/l8pmeWvlr9HE0B7KZgAkkQmAh4gi9o/lkIrnVKQz9GtKOMnRfdPP3J9qbtk6QSoi1imKsWx/V8TPd6nol2heJpy85AcFmAqkSeJjAQu5ojk810cTjWo74HgzcF7369Rza8wjr0RtGFcVYr35K/fOnQHgK+hSabzRO/2UCJpAyAd2GFHIH8wj+XPUP1+NLsNo9gfujV9/+k/ZmHi7cbNdSMfYY6sWuyZ//Gz4HIV1G9OUkINhMoI4EdiXo0DuyNeoIIpGYFyGO2yP0Sbc+vpT2Zksk/6rC0GQ8G6JD0c2oG68mfvYcTE5HmmJ6YWQzARPIgMBbySH0Du3bGXCpMoU30/hNEfqlWz/r3vS5qky6grYXpM0d0O+R5pTvxqeJn90KkyOQbln1eBEg2EwgNwK6JexpFHIHd0VukCrIR48vvS5wv/Tq4xtob/4Kci2rySlpaB10ILoW9eLRtM9fgslfkM4K6nKUzQRMoAEEziDHkDs7jQSetwHcYqeo26YuRyH7ppcv/epbOHZiJfpXIbUNOgk9gXrl37TPNebkJ2gzNAOymYAJNIzAzuQbese3bcMYxkp3FhxfGKF/uvX3XbT3llgJRfarAairo2+hy5CK0W65Nu0zTbn7D7QXWh7ZTMAEGk5AA89C7whPbjjTkOnPiLO/Reijbn1+P+0tEzKJiL5mx/dH0a/Qw6hbXk387CGYHIO2QLMimwmYgAmMInAjf4XcOT6JP11ztYUhMB1uzkIh+6iXLx1MVwoTfnAvikuP2L0AvYp65dKkzzXl7iVoH7QqmhzZTMAETKAjge/zSeid5PiOrfmDYQjoVrXTUOh+6ubvcdpbbZhgA68zE/42Rz9H96FuMTfxM/XTb9DWqGl3c5CyzQRMoAiB9Vk59I7ze0UC8rptCeisygkodF9186e7RNZuG03cN5fG/R7oXPQy6hZjEz+7Gib7o7WQ7uaxmYAJmMBQBKZiLe3oQ+5Irx8qEq/Ui4AGuh2NQvZVL1+aCGbDXoEV/FyXOd6DfojuQL1iatrn+n5q5s7t0ALIZgImYALBCGjnEnqnulCw6OxoJAFd1/0BCt1f3fy9SHvvHRlEgNeL4uNz6Ez0AurWfhM/09icg9EGSJeAbCZgAiYQhYB+WYTeyX42SqR2OpHAQRH6rNs2oFPxH57Y+BD/6yD2TnQIKnu2w255pfLZ83A5A+2MdHeOzQRMwARKIaDTiqF3hKeXEnmzG/lWhH7rth1o1L0Gm/Vrb2bB7dHv0TOom+8mfnY7THQ2591Il0FsJmACJlAJAQ0sCrkT1rXjaSrJpFmN7hm433ptA6/Tng7q7UwD0jRo8AB0Derlq2mfa8pdDWzcHS2FbCZgAiaQBAGNKg69Q944iczyD2IXUtSBOXT/dfL3Gm19YALWufl/G3Qi8pS7k/bBvXD5GRIv3dJoMwETMIHkCKxJRJ12+MO+f3hyWeYb0KdJTQfmYftq0PV0hudSVGbhMWiMVSyvyyQXIE1WtCKymYAJmEDyBHT6VpOKhNxp3pJ81nkF+DHSeSVwH4bcHnL1pZkTj0NbotmQzQRMwARqR0AzioXeSS9ROwr1Dnhzwte15tD9aH8tpjrrcRnSIMzVkOZnsJmACZhArQlsTfShd/S71ppIPYPXqHLfWx92W9b4Bo1z2AbNg2wmYAImkBWBucgm9HXkv2RFqD7JrE+oz6LQBV2T/F0LvwPROmhKZDMBEzCBrAlcQnYhd/KaRW6GrImlm5wGdj6FQvZnzr5UMGnOgh3QgshmAiZgAo0isA/Zht7Jb9oogmklq9vPPFK/8zZ9M3wORXregWYrtJmACZhAYwmsSuahC4CfNJZm+YnrVPXayJPxtN+ONTbibKS5ExZDNhMwARMwgQkE9LCZh1DIIuBu041KwJPxdN9e74T+j5AeaDQ9spmACZiACXQgcAzvhywA5Gv5Dm357cEJ6LYz3X6m29B0O5pP8Y/eXvXgovPQl9AyyGYCJmACJtAngS1YLnQBsFefbXux9gQ0wYwmmjkOaeKZ0P1Td3/3w+QX6INoZmQzARMwARMYgsCsrBN6Rrm/DxFH01dZCQCaUlZTy2qK2bofpEPGr9tV/4W+hlZGunRlMwETMAETCEDgH/gIucNWQaHCwtaZgB4Wo1H7P0f3oZD8c/D1KEyOR5ryeA5kMwETMAETiEDgy/gMfdDQpQXbaAJL8+ce6Fyka9ehmdfZn8Y2XIG+g96ONPbBZgImYAImEJnACvgPffA4JnLMdXA/HUG+B/0Q3YFCM667v6dgcjLaFs2LbCZgAiZgAhUQuIc2Qx5QdHthE6/VLkren0NnId2HHpJpDr6uh8n30HjkKXeBYDMBEzCBqgloAp/QBxhNNJS7aUa5d6JD0E0oNMO6+3sOJqejz6KFkc0ETMAETCAxApsRT+iDzT6J5RgqnDfjaAekueSfQaG51d3fLTA5HG2MpkE2EzABEzCBhAnMSGwvoZAHn0sSzneQ0HSqeuKUu3pqXEhGOfh6ESZ/QbuixZHNBEzABEygZgTOId6QByTdv63HDtfR5iHobdCJSM+HD8klB193w+QopIc/+QmQQLCZgAmYQJ0J7EbwoQ9OW9cEiG47Wx19C3nK3Um3A83t8He0F1oO2UzABEzABDIisCS5hC4AfpMwn9mJbUt0HPKUu5P2/YNw+SX6MJoF2UzABEzABDImcCu5hSwCHsffFAnx8pS7nftXl2wuRt9AuoOjibdxkrbNBEzABJpJ4AjSDlkAyNdaFaLUlLubI0+5275fH4PNCWgrNCeymYAJmIAJNJTAJuQdugDYv2SWS9Oep9zt3I9XwWc/tCZK6ewM4dhMwARMwASqIjAtDT+PQhYBV0dOZjr8e8rdzn32NHxORZ9G8yObCZiACZiACbQl8CfeDVkAyNcCbVsa/s3FWHUXdBZ6AYWOt+7+boDJ99H6aCpkMwETMAETMIGeBHZiidAHwO17ttp9AU+5271PdNbmDLQzGodsJmACJmACJjAwgXGsEboAOG3gKCab7M2s4yl3O/fFbfA5Er0L6dKNzQRMwARMwAQKE9Ap5JBFgObM16/4bqYpd9dBB6JrUcj2c/ClqZr/inZHmrPBZgImYAImYALBCRyEx9AHzQ3aRDkP722DPOVue973wuan6P1Iz2uwmYAJmIAJmEBUAuvhPXQBoEfmesrd7lxfhdE/0VfQishmAiZgAiZQUwJ1nU1NI8c1SYwm0gllT+JIc8rX9QFBoTiM9fMIb+huhjORnqr3BLKZgAmYgAmYQGUEfkfLoc8C2N9kk70O10vRN9FqqK5FIqHbTMAETMAEOhGo885dE8f8vFNifn9gAhoIqUF8ZyM9fMhmAiZgAiYwPAGdUdaA9TuGdxF3zToXAJo17r64eOzdBEzABEzABAoR0EPnLkf6gXU4ehklYXUuAARQ88brCXo2EzABEzABE0idgG4h3xZdmUKgU6QQRIEYFmLdtQus71VNwARMwARMoCwCurVcl691FuDCshrt1E7dzwC8IwWIneD6fRMwARMwARPoQGAj3j+nw2elvF33AkBnMDRgbfZSaLkREzABEzABEwhD4B7cLI+eCuNucC91vwSg2/Y0BkAQbSZgAiZgAiZQFwKzEKjmnfljVQFr5ru6myaosZmACZiACZhA3QhsQcCVHYfrfglAnT0neqhKiArCZgImYAImYAJDEFiKdW4eYr3Cq1RWeRSOvOXgUV5e1vrTr0zABEzABEygNgRWrSrSHAoAsfNlgKq2ILdrAiZgAiZQhEBlc9m4ACjSbV7XBEzABEzABIoRCPlQu4EiyaUAuH6grL2wCZiACZiACTScQC4FQMO70embgAmYgAmYwGAEXAAMxstLm4AJmIAJmEAWBFwAZNGNTsIETMAETMAEBiPgAmAwXl7aBEzABEzABLIg4AIgi250EiZgAiZgAiYwGAEXAIPx8tImYAImYAImkAUBFwBZdKOTMAETMAETMIHBCEw52OKNWfp1Mj29MdmWn+iMNLlBpGZfxe8ZkXyn4HY8QegpYjHsIpzq8do52qIkFeupoffh+/IcoZHTNGiTSLnpaa7az+r/Otk4gl2xTgHnHuu0JKiNKJRezB1YxfkdGLCvxvb5oRXnFrP5VXD+WiR2d+BX36McTWc6r0Bjt5VQf2+cI7QJOX05Irdf1pTbZwMzOaqmHJIJ2wVAMl3RM5DFWEIFVqid70g/j+B31p4R1HeBf0biJoYfqi+WnpFvF5FbzmcK54Xb05HYPYPf+VAdzQVAYr3mAiCxDukSzml8NvKgHfK1vpi52kdILCSrkb7OyxUaec2M9LjwkfmGev0yfhdHudovSSwUq7F+dGahruYCILGecwGQWId0CEfX/cfuCEL9fQ2+p+jQbt3fno4E7kKhWI30o0sKOV/PPCgSNzH8PsrV3kZiGgs1clsJ9fo2/GpsQV3NBUBiPecCILEOaROODs7XoVA7kbF+xrdpM5e39onILefrj/p1/lIkdjqroLMLudq/SGzsdyzU3++vOTQXAIl1oAuAxDqkTTg7816oHchYP6e0aS+XtxYkkecisXsCv3PlAqpNHhNHmI/dXkL8rXEFudrHSSwEo3Y+/poBNBcAiXWiC4DEOmRMOLPz92Oo3Q6h6Hsv4HccytVOILGijDqtv1uu0MhLI/M75V30/SvxnescKtOT2z2R2OkW3eVQ3c0FQGI96AIgsQ4ZE86R/F10p9tp/X3HtJXTn2tG5HYTvqfKCdaIXDS/yQ2o0zZT9P21R7SV28tvR+T2w0xguQBIrCNdACTWISPCWZbXr6CiO91262sClhlGtJXTS/3C1OQy7fIO8d67coI1JpcvROT22zFt5fTnwiSjM2ohtq+xPh7H7xyZwHIBkFhHugBIrENGhHMOr8fuDEL9vdWIdnJ7+amI3M7IDdaIfObktcY2hNrGRvp5Hr8LjWgrt5cnReImhrtkBMsFQGKd6QIgsQ6ZEM5m/D9yBxry9UX4njzNtAtHNRMeHkQheU30pXvXlywcYboOfhyJm/h9M920C0e2Dh4mbiOh//83vnVZJhdzAZBYT7oASKxDCGdqdCsKvTORP92fvBrK1b5LYjG4yechuUIjrxWQBprFYHc3fjVALkfT5aarUAxu8rlRZtBcACTWoS4AEusQwtkTxdqhHJteusEiegueYt27rgf9zBIs0vQc/Y2QYm1zH00v3WARbR+R2x+DRZmOIxcA6fTFfyNxAZBWh3gO8eH74w+sGusgtsPwYSW/5uYRuV2QfPbDB6iCUIVhjG1OhawK2tzMBUBiPeoCIK0OOZpwYuxQ5PMraaUaNJoNI3K7Gt861Zuj6ft/O4qxzWmq5LfmCG1CTgdH4qa++F6m3FwAJNaxLgDS6ZBVCUXX6GPsjOs+h3i3XtIgqesjcVNfrNut8Zp/tndEbr+oOZtu4S/BhxoUGuO7+iB+Z+7WeI0/cwGQWOe5AEinQy4klBg7FPn8QDppBo/kcxG5nRw82nQczk8oz0Zi9xR+50kn1eCR/CkSN31XPx082nQcugBIpy/+G4kLgDQ65GOEEevgf24aKUaJwlMlD4/1uIjb3JeGDyv5NTeJyO0KfOd6uUkd6wJAFBIyFwDVd4ZukYo5h/jy1acYLYIf4DlW4fSdaFFX73h1Qoh1uekWfOtW1hxNl5tuRLG2ubVyhDYiJxcAI2Ck8NIFQPW98G1CiLVDyWUO8Xa9pKmSY927fi++c50qWZNAXYxibXPvw3eutiuJxeL2m1yhjcjLBcAIGCm8dAFQbS8sTPOaJjXGTiWnOcTb9ZKnSm5Hpfd7n4i0vWkb/nPv5mu7xJxE/gSK8V3VPmDB2pLpP3AXAP2zKmVJFwClYO7YyEl8EmOHIp+7dGy1/h9sFpFbzlMlzwg3PQgqxjanB1ctg3I1T5VcvGddABRnGNSDC4CgOAdytg5Lx9gRy2duc4iPBKvry54qeSSR/l/vz6KxtrnD+w+jdkt6quQwXeYCIAzHYF5cAARDOZAjjfS9CsXaGW80UDT1WniviNyOqReKgaJdhKVfRDG2uUfxO9tA0dRr4fMicVNfbFkvFIWidQFQCF/4lV0AhGfaj0fPId4PpUmX8VTJkzLp953fsWCMg7987tRvEDVc7oMRuV1QQx5FQnYBUIRehHVdAESA2sOl5xDvAajLx0fzWayDWM5TJa8Xkdu1+J6iS5/V+SPtH29HMba51/Cb81TJ7frdBUA7KhW+5wKgfPgH02SMHYp8fq/8dEprcVVaeh3FYHcbfqcpLZNyG9LBWQfpGNzkc/1y0ym1NU+VHBa3C4CwPAt7cwFQGOFADpZkac8hPhCy/y3sqZL/h2KgFzuydKyD/6kDRVKvhT1Vcvj+cgEQnmkhjy4ACuEbeOUzWCPWzvhTA0dTnxU8VfJwfaWBeRqgF2Ob04DCRYcLqxZrHReJm/oi56mSu3WuC4BudCr4zAVAedDfRVMxdsTyeTl6U3mplNrS9LTmqZKHQ65b82Jtc7qlMFfzVMlxetYFQByuQ3t1ATA0uoFWnIqlb0KxdsZrDhRNvRb+VkRuP6oXioGiXZqlNTlPjG3ufvxqUqEcLfZUyZvmCK3PnFwA9AmqrMVcAJRDejeaibEjls8TykmhklYWolVPlTwcek3LG2ub+8RwIdVira0jcvtLLQjEC9IFQDy2Q3l2ATAUtoFWmoulY80h/hy+c55D/ETyi3UQ+/xAvVivhfVAnljcLsG3fiXnaHoAlKdKjtezLgDisR3KswuAobANtNJRLB1rZ7zPQJHUa+G1I3K7Ad96tGuONjVJ/QfF2OZ0G+YaOUKbkNN+kbipL47ImFu/qbkA6JdUScu5AIgLekXcv4Zi7Izvwu90ccOvzLsGNF6JYnCTz40qyyx+w1+MyO1X8cOvrIVFaPmFSOwew2/OUyX322kuAPolVdJyLgDigj4f97EOYh+JG3ql3reLyO30SjOL2/g8uH8qErtn8at743O1U0gs1nd151yhDZiXC4ABgcVe3AVAPMIfwnWsHco/4oVdueeZieChSOxewu/ilWcYL4CfR+Km7fir8cKu3PN4Ioj1Xb0O37lOlTxox7kAGJRY5OVdAMQBLK53oBg7FV1SWDlO2El4/X4kbuqLg5LIME4Qq+A21uUmbcvapnM0HZyvQTG+q/K5QY7QhszJBcCQ4GKt5gIgDtmv4TbWDuVncUJOwusSRPFyJHY6q6CzC7naP0ks1janJ+LlaqEPSiP74LRcoQ2ZV2jWGmBtK0DABUABeB1WXYD3db105I4g1Gtd3527Q7s5vK3r86FYjfWjcQW52pYkNjbfUH+flys08poVPRKJ3Yv4XQzZWgRcALRYJPHKBUD4bjgel6F2vmP97BE+3GQ8bhyR2xX4znWqZN0Jcnckdq/idwWUqx1KYmO/Y6H+PjBXaAXycgFQAF6MVV0AhKX6dtzFemTtzfjWlMI5mu7J1735oXa+Y/1oToFc7ZskNjbfUH//OFdo5LUUijVV8gP4niljdsOm5gJgWHKR1nMBEA6sZke7FIXa+Y71855woSbn6QsRuf02uWzDBbQgrmJNlfwEvucMF2pyns4iorHfsVB/fzK5bNMIyAVAGv3wvyhcAPwPReEX2+Ah1A5krJ+zC0eXrgMdZHSwGZtziL91cNTzBHK135BYCE7tfOyaKzTyUjHdLucQ712G71ynSi66SbgAKEow8PouAMIA1ZPR7kchdiBjfeg05VJhwkzSy48icRPHbyWZcZig1orI7UZ867JMjqbLaLqcNvZ7FupvXQa0tSfgAqA9l8redQEQBv0BuAm1Axnr57AwISbpRQPMNNBsbM4h/tbAuOmTzLp4UBrQqIGNITi187FJ8RCT9bB7RG6/TjbrNAJzAZBGP/wvChcA/0Mx9ItFWVO3/LTbkRZ9T7co6ValXO1vJFaUUaf1P5orNPL6dERuf8qYm57M+WQkdnoy55szZhciNRcAISgG9OECoDjM03DR6SBU9H19YXK1zUmsKJ9O61+QKzTyijlVsiZh0mRMudpPSazTNlP0/a/nCi1gXi4AAsIM4coFQDGKmuaz6I6j0/qannSKYuElu/Y0RHY76pR7kfd1G+Zbk828eGAHReIm5pqGOVdbicRiTZV8J75zfTJnyO3BBUBImgF8uQAYHqIOztehIgerbuuOHz605Nf8SkRuRyef/fAB6kFGL0Vip6mSZxk+tOTX/HskbvoOb5F89mkE6AIgjX74XxQuAP6HYuAXO7NGtwN4kc/0aNJcbT4SewYV4dNp3afxq0fi5mqnk1in3Iu+v12u0MjrwxG5qbCw9UfABUB/nEpbygXAcKhnZ7XHUNGdbrv1X8DvIsOFVYu1jo3ETSz3rAWB4YLcOCK3K/GtOwtyNO3j7kTtvmtF39MlhZyfzEl6Qc0FQFCcxZ25ABiO4ZGsVnTn0Wn9fYcLqRZrrUaUukbfKfci79+C36lrQWHwIHVP/g2oCJ9u6649eEi1WUOD87rlXuQzDSq09U/ABUD/rEpZ0gXA4JiXZZVYc4jfh+8ZBg+pFmtMTpQXoSI73G7rbloLCsMF+fmI3E4cLqRarKXb8nR7XrftZtjPdDvh3LWgkE6QLgDS6Yv/RuICYPAO+QurDLvT6LXe1oOHU5s1torI7ZzaUBg80DlY5fFI7J7H70KDh1SbNY6PxE3f4z1qQyGdQF0ApNMX/43EBcBgHaJfmb0O4sN+fjG+9Ss5R9NZDZ3dGJZNt/V0NkZnZXK1H5FYt/yLfPatXKGR19tRrMtNN+N7qozZxUrNBUAsskP6dQHQPzhdX9Z15iI73E7rake1Wv+h1G5JjWvolHvR9zUeI1dbnsRiTZV8D75znSpZhbSfzJnet8IFQGJ94gKg/w7Zk0WLHqw6rX9s/2HUbslxRKw7GzrlXuR93YmhOzJytb+RWBE+3db9aK7QyOuTEbmdlTG32Km5AIhNeED/LgD6AzYvi+ke82471GE/ewa/ujc+V9OcBsOy6bXezrlCI6/NI3K7IGNuejLnA5HY6XLTUhmzi52aC4DYhAf07wKgP2BHs1ivg9Gwn3+lvxBqudT4iNyux7enSh58u9TlpreiXO0AEhv2u9hrvcNyhVZSXi4ASgLdbzMuAHqTWpVFtNPstXMY5vPb8TtN7xBquYQmlrkaDcOln3XeWUsq/QW9d0Ruv+gvhFou5Sdzpt1tLgAS6x8XAL075EIW6eeANMwyH+jdfG2X+ExEbr+vLZXegc/PIrosNMz21GsdXcbKeapkP5mz9/ZV5RIuAKqk36ZtFwBtoIx462O87rVTHfbzc0e0k9vLWUnokUjsXsLvYrkBG5HPcZG4aTv90oh2cnu5QURuOT+Zs8ztwAVAmbT7aMsFQGdIukXqHjTsAb7berq1S7d45WqHkli3/It8dmCu0MhrdRTrcpNuYc11qmSNBbkOFdmuuq27Hr5txQm4ACjOMKgHFwCdcWqSlG47hSKfckR/AQAAHgVJREFUaXKXXG1JEnsZFeHTad0H8DtTpuB07/rFkbiJZ85TJe8Ukdvv8G0LQ8AFQBiOwby4AGiPciHefh51OhAVeV/Tus7Rvtks3j0zEjcx3zYLQu2T0DTQRbarbuv+pX2TWbw7G1k8Gondi/hdJAtKaSThAiCNfvhfFC4A/odi1As9IKXbDrXIZ58f1VJef7w7IrfL8K1fyTma7l2POVXyMjlCm5DTEfxf5PvYbd39MuZWRWouAKqg3qVNFwCTwlmHt7rtFIp89m98Tzlpk1m8o7nRb0JF+HRb9x1ZUGqfhA403XIv8pkOkLmaChtNzlOET6d1VZCpMLOFI+ACIBzLIJ5cAIzGqHvXr0SddgpF399odHNZ/bVbRG4nZEVqdDI6xaxTzUW3rXbr69S4TpHnan8msXZ5h3jvE7lCqzAvFwAVwm/XtAuA0VS2588QO492Pv44uqms/pqLbJ6MxE7Pc9dz3XM1DTJrt72EeE+D43K195FYCEbtfFyM71wvN1W5PbgAqJJ+m7ZdALSgzMLLh1C7HULR93Tv+uKtprJ79ZNI3MT9G9nRaiW0XkRuui1Ot8flaLGfzKnbMW3hCbgACM+0kEcXAC18B/Oy6IG+0/rfazWT3auVyOi1SOzuwu902RF7IyEdnDXBTKdtpuj762fKTWlpQqOifDqtr4mYbHEIuACIw3Vory4A3kC3BP/Funf9QXzPPHQPpb/i+YTYaWda9P0t0k9/6Ah3jMjt1KGjSn9FTWX8VCR2z+J3/vQR1DbCbAqAXEdyF92ydGru/KJOKlh/YdqcKlK7r+M31+v/epDRGpG4qXjQNexcr2OvHImb3KqgPV8vMrT5yClWQa3BmCdkyCyVlLIprnIZIKIzAC+ksnU4DhMwARMwARPok4DGHumsQumm28VsJmACJmACJmACDSPgAqBhHe50TcAETMAETEAEXAB4OzABEzABEzCBBhJwAdDATnfKJmACJmACJuACwNuACZiACZiACTSQgAuABna6UzYBEzABEzABFwDeBkzABEzABEyggQRcADSw052yCZiACZiACbgA8DZgAiZgAiZgAg0k4AKggZ3ulE3ABEzABEzABYC3ARMwARMwARNoIAEXAA3sdKdsAiZgAiZgAi4AvA2YgAmYgAmYQAMJuABoYKc7ZRMwARMwARNwAeBtwARMwARMwAQaSMAFQAM73SmbgAmYgAmYgAsAbwMmYAImYAIm0EACLgAa2OlO2QRMwARMwASmNIK2BF7h3Y3afuI3TcAETMAEmkxgU5LfLQcALgDa9+LrvH1++4/8rgmYgAmYQIMJLJVL7r4EkEtPOg8TMAETMAETGICAC4ABYHlREzABEzABE8iFgAuAXHrSeZiACZiACZjAAARcAAwAy4uagAmYgAmYQC4EXADk0pPOwwRMwARMwAQGIOACYABYXtQETMAETMAEciHgAiCXnnQeJmACJmACJjAAARcAA8DyoiZgAiZgAiaQCwEXALn0pPMwARMwARMwgQEIuAAYAJYXNQETMAETMIFcCLgAyKUnnYcJmIAJmIAJDEDABcAAsLyoCZiACZiACeRCwAVALj3pPEzABEzABExgAAIuAAaA5UVNwARMwARMIBcCLgBy6UnnYQImYAImYAIDEHABMAAsL2oCJmACJmACuRBwAZBLTzoPEzABEzABExiAgAuAAWB5URMwARMwARPIhYALgFx60nmYgAmYgAmYwAAEXAAMAMuLmoAJmIAJmEAuBFwA5NKTzsMETMAETMAEBiDgAmAAWF7UBEzABEzABHIhMGUuiTgPE8iYwOTktjZaGi2M9L29C92CzkOvIJsJmIAJDETABcBAuLywCZRKYFpa2wV9Fi3aoeUHef/n6Ej0cIdl/LYJmIAJZEtAO8r/C6gXsyXlxOpCQAf8q1C/2/VTLLsHmgrZTMAE4hFQQd7v97Kf5Y6KF2p3zx4D0J2PPzWBKgisSKNXoJUGaHxmlv0+uh69d4D1vKgJmEBDCbgAaGjHO+1kCcxCZL9Dsw4Z4RKsdzo6G2nMgM0ETMAE2hJwAdAWi980gcoIHErLiwVofWN8XIsOQ7MF8GcXJmACmRFwAZBZhzqdWhOYm+g/HjADDfL9AtLdAjuiKZDNBEzABP5LwAWANwQTSIfApwhl6gjhzIHPH6Gr0PoR/NulCZhADQm4AKhhpznkbAmsETmz5fF/LjoVLRK5Lbs3ARNInIALgMQ7yOE1isCiJWX7Adq5Ee2PZiypTTdjAiaQGAEXAIl1iMNpNIEFSsx+Gtr6CvoP2gZptkGbCZhAgwi4AGhQZzvV5AlUMUhvPqgcgy5GsS9B0ITNBEwgFQIuAFLpCcdhAtUSWI3m/4V+hco8E1Ft1m7dBBpMwAVAgzvfqZvAGAK6DLAVuhl9DWmKbZsJmECmBFwAZNqxTssEChCYgXW/gzRQ8EMF/HhVEzCBhAm4AEi4cxyaCVRMYBztn4zOR4M8l4DFbSZgAqkTcAGQeg85PhOonsC6hKCHE/0EzVV9OI7ABEwgBAEXACEo2ocJ5E9A+4odkKYV3g35scNAsJlAnQm4AKhz7zl2EyifgJ5WeAi6Dr27/ObdogmYQCgCLgBCkbQfE2gWgSVJ9wx0JlqqWak7WxPIg4ALgDz60VmYQFUE3kXDeuywHmM8a1VBuF0TMIHBCbgAGJyZ1zABExhNQOMBdkUaH/AZVMWMhjRrMwETGISAC4BBaHlZEzCBbgTm5MOjkO4YGI9sJmACCRNwAZBw5zg0E6gpgRWJ+zx0ChqHbCZgAgkScAGQYKc4JBPIhMAHyUOzCe6LNLugzQRMICECLgAS6gyHYgIZEtDzBL6K9NjhrZEfOwwEmwmkQMAFQAq94BhMIH8C85PicegitHr+6TpDE0ifgAuA9PvIEZrAsASeGHbFiOvp4K8iQMWAigKbCZhARQRcAFQE3s2aQAkE9ACfg9ErJbQ1SBO6DKDLAbossDfyY4eBYDOBsgm4ACibuNszgfIIPE1TX0TLoT+V12zfLWlg4H7oBqQBgzYTMIESCbgAKBG2mzKBigjol/b70CZIo/JTs0UISLcM6tbBFVILzvGYQK4EXADk2rPOywQmJfBn3tIBVrP2PTnpx5W/M54IrkQ/RppUyGYCJhCRgAuAiHDt2gQSJPAqMR2OFkc60L6GUjJNI/xZpGmFVaj4scNAsJlADAIuAGJQtU8TSJ/Ao4S4E1oZ6dR7ajYrAekBQ3rQkC5d2EzABAITcAEQGKjdmUDNCFxHvOsjDcK7I8HYlyKms5AePbxEgvE5JBOoLQEXALXtOgduAkEJnIq3pZFuy3s2qOcwzt6Nm+uRbmucJYxLezGBZhNwAdDs/nf2JjCSwEv8cQDSL+3j0P+hlEzjAXZHGh+wA/L+Cwg2ExiWgL9Aw5LzeiaQL4EHSG0btAa6OME05yKmnyA9dnidBONzSCZQCwIuAGrRTQ7SBCohcCmtvgNp1r77Komge6Mr8fHf0Ulo4e6L+lMTMIGxBFwAjCXiv03ABEYS0GWA49GSSI/1fRGlZh8moJvQd5AfO5xa7zieZAm4AEi2axyYCSRF4Dmi+TrSQEHN2peaTUtAX0M3o48jP3YYCDYT6EbABUA3Ov7MBExgLIE7eUO/uMeja1BqtgAB6YzFhehtqQXneEwgJQIuAFLqDcdiAvUhoGvvq6DPoEcSDPvtxHQJOgbNh2wmYAJjCLgAGAPEf5qACfRN4HWW/ClaHGnWvldQSqbLALqbQQ9D+jKaBtlMwAQmEHAB4E3BBEygKIGncKD785dHZxZ1FmH9GfF5ANJjhz8Qwb9dmkAtCbgAqGW3OWgTSJKABuC9B2nWPr1OzRYlIM14eC5SsWIzgUYTcAHQ6O538iYQhYDm7tcBVmcFUnzs8PrEdRX6EZoD2UygkQRcADSy2520CUQnoPEAGhegaYV/gjReICXTY4d3RLegz6Mpkc0EGkXABUCjutvJmkDpBHSHwGeR7hg4H6VmsxHQ4ehatHFqwTkeE4hJwAVATLr2bQImMJHANbxYD2kOgTtRaqYJjs5GpyPd1WAzgewJuADIvoudoAkkRUCzCOpgq1n7NLtgavZeAtJjhw9CM6cWnOMxgZAEXACEpGlfJmAC/RDQ8wT2QxofoFn79LyBlGxqgvki0viA7ZD3k0Cw5UfAG3Z+feqMTKAuBO4nUD1pUE8c1JMHU7O5Cehn6HK0TGrBOR4TKErABUBRgl7fBEygKIGLcbAG0qx9KgpSs5UJSNMKa/yCzQSyIeACIJuudCImUGsCugxwHFoS7Y9eQimZZhM8CW2RUlCOxQSKEHABUISe1zUBEwhN4FkcfhVpoKBm7UvNfkFAS6UWlOMxgWEIuAAYhprXMQETiE3gDhr4IFof6R79VExnAjSDoM0Eak/ABUDtu9AJmEDWBM4jO00itCN6NJFMNZ+BzwIk0hkOY3gCLgCGZ+c1TcAEyiHwGs0chTRBj2btexVVbRqwaDOBWhNwAVDr7nPwJtAoAnqw0K5IDxrSrH1Vmp8mWCV9tx2EgAuAIBjtxARMoEQCN9HWu9B70X9KbHdkU54ueCQNv64lARcAtew2B20CJgCBK9BlFZGYtqJ23awJBCPgR2AGQ2lHJmACJRGYhnZ2Q3ujmUpqc2wzt459w3+bQN0IuACoW485XhNoNoH3k/7BaNGKMegyhM0Eak3ABUCtu8/Bm0BjCGjQ3WFo/UQy1qyANhOoNQGPAah19zl4E8iewBxkqIl3rkKpHPz16//vyGYCtSbgMwC17j4HbwLZEtC+aSf0TTQbSsX0zII9UwnGcZhAEQIuAIrQ87omYAIxCGyM00ORngeQmu1HQKenFpTjMYFhCPgSwDDUvI4JmEAMAkvgVAdXTfKT4sFfgw/3QTYTyIKAzwBk0Y1OwgRqTWAWov86+jyaKsFMniamHdCJCcbmkExgaAI+AzA0Oq9oAiZQkID2P9sjzea3B0rt4P86Menxvzoz4YM/EGx5EfAZgLz609mYQF0IrEOgerDPSokGfAFxfQFdmWh8DssEChPwGYDCCO3ABExgAAILs6zuoddtdCke/O8mri3R2sgHfyDY8iXgMwD59q0zM4GUCMxAMF9GX0QpzqP/PHF9b4Je4H+bCWRPwAVA9l3sBE2gUgKT0/rH0HfRApVG0rnx3/DRXuiezov4ExPIj4ALgPz61BmZQCoEViMQXedfI5WAxsRxBX/rOv+FY973nybQCAIeA9CIbnaSJlAqgflo7Vh0MUrx4P8QcX0KvQ354A8EWzMJ+AxAM/vdWZtADAJ6TO/uSI/pnTFGAwV9vsz6eqDQvuiZgr68ugnUnoALgNp3oRMwgSQIbE4U30eLJBHNpEH8gbc018Btk37kd0ygmQRcADSz3521CYQisAKO9Kt6vVAOA/v5N/52RX8N7NfuTKD2BDwGoPZd6ARMoBICc9Lqj5HulU/x4P84ce2CVkQ++APBZgJjCfgMwFgi/tsETKAbAU3XuzPSQ3Fm7bZgRZ+9RrsqTBSfigCbCZhABwIuADqA8dsmYAKTEHgX7xyClprkkzTe0C99ne7XaX+bCZhADwK+BNADkD82AROYbEkYnIHORCke/DWw7/1oQ+SDPxBsJtAPARcA/VDyMibQTAJ6TK9+8V+H3p0gAt3Kpxn8lkEa5W8zARMYgIAvAQwAy4uaQEMI6IfB9ug7aK4Ec/4/YjoGfQVpUh+bCZjAEARcAAwBzauYQMYExpPbYUij51O0CwlK0/dqGl+bCZhAAQK+BFAAnlc1gYwIjCOXU9B5KMWDvx7Uo4cKrYV88AeCzQSKEvAZgKIEvb4J1JuAHtOrU+maJS/Fx/S+QFwTH9OrR/baTMAEAhFwARAIpN2YQM0ITE68W6ED0fyJxn4ice2J7k40PodlArUm4AKg1t3n4E1gKAKrs5Ye06v/U7QrCUrX+S9IMTjHZAK5EPAYgFx60nmYQG8C+qV/HLoIpXjw14j+7dDbkA/+QLCZQEwCPgMQk659m0AaBHRtX9f4da1f1/xTMz2m9wik2w6fTi04x2MCuRJwAZBrzzovE3iDwIf47yA07o0/k/v3dCJScXJLcpE5IBPInIALgMw72Ok1msDZZJ/iqX51yg1oN/QX/WEzARMon4DHAJTP3C2aQFkEUjz4P0Hyn0eaa8AH/7K2BLdjAm0I+AxAGyh+ywRMIDgBPab3J+gb6LHg3u3QBExgYAIuAAZG5hVMwAQGJHAuy+sxvdcPuJ4XNwETiEjAlwAiwrVrE2g4gdvJ/wPoncgH/4ZvDE4/PQIuANLrE0dkAnUn8CwJ6JZDPab393VPxvGbQK4EfAkg1551XiZQPgE9pvdYpIP/g+U37xZNwAQGIeACYBBaXtYETKATAc0uqOl7L+u0gN83ARNIi4AvAaTVH47GBOpG4F4C/jh6B/LBv26953gbTcBnABrd/U7eBIYm8AJrfh/paYJ+TO/QGL2iCVRHwAVAdezdsgnUlcBJBK7H9N5V1wQctwmYwGSTuQDwVmACJtAvgatYUPfz/6PfFbycCZhAugQ8BiDdvnFkJpAKgYcJZAe0KvLBP5VecRwmUJCAzwAUBOjVTSBjAq+Q28TH9D6VcZ5OzQQaScAFQCO73UmbQE8CZ7DE7ug/PZf0AiZgArUk4AKglt3moE0gGoEb8awDvx4lbDMBE8iYgMcAZNy5Ts0EBiDwJMtqgN8KyAf/AcB5UROoKwGfAahrzznuHAloKt2yTY/p/Rn6Onq07MbdngmYQHUEcjkDoJ1YSFNhNHlIh/ZlAn0Q0Gj7Mu08GlsF7Yh88C+TvNuqM4GpAgcf+vjVd3i5FAAarfxy31n3XnAKFpmz92JewgSCEtDjc8uwO2jkg2h9dG0ZDboNE8iIwLyBc9HTMyuxXAoAwXsmMMH5A/uzOxPoReC6XgsU/Fw7mr3R0ujUgr68ugk0lUDoY0PoY1ff/ZJTARC6ipqvb4pe0ATCEPhFGDeTeNHYguPQEugA9BKymYAJDEcg9LEh9LGr76xyKgBCV1Ghq7y+O8ULNpbAzWT+18DZX4y/NdA26IHAvu3OBJpIIPSxIfSxq+8+cQHQGVXoKq9zS/7EBFoEduLl060/h351H2tujd6BLh3ai1c0ARMYSyD0scEFwFjCQ/wd+tdN6CpviJS8SgMJ3ELO2yKdth/GXmSl/dCS6Hg0rB9WtZmACYwhMDV/zzHmvaJ/hj52FY2nluvvT9Ta2YWSpkK1mUBVBN5Dw4+jQbbnk1l+HLKZgAnEIbA4bgf5Tvaz7NxxQm2W120Cd4wGZkzbLITONjECixDP75Buc+20I3mdz85B6yKbCZhAXAK74L7Td3GY95+IG2537znNBKgBVCFtBpxtiE4P6dS+TGAAAnew7AfRAmgrtCxaFOl7qzkDtM2fgHTZwGYCJhCfwPsDNxH6uBU4vPq4m41Qh6nAuq0T67as+lB1pCZgAiZgAiIwO+p2Nq7bsaTTZ8dWiTanuwB0KuXBwDA3xZ9mBbSZgAmYgAk0m8B7ST/0WfMbqkSaUwEgjv8IDHNO/K0Z2KfdmYAJmIAJ1I9A6NP/IhD6mDUQ1dwKgL8NlH1/C8fo9P5a9lImYAImYAIpEJiOIDYOHIju/78ssM9Gu4txi8b9EFXn20zABEzABJpJ4JOk3ek6/rDv+1bzCNvS3RE66isR4rRLEzABEzCB9AlMQ4h3oWEP9J3W2yP91OsX4TEROupJfM5RPxSO2ARMwARMoCCBL7J+p4N4kfdXKhiXV29D4H2ROuuQNm35LRMwARMwgXwJzEpqj6EiB/p2696aL7JqM5uK5h+O0GGaY30cspmACZiACTSDwHdJs90BvOh7+zQDXzVZHhGp035VTTpu1QRMwARMoGQCb6a9F1DRg3279RcrOZdGNbdqpE7TvOsbNIqkkzUBEzCB5hGYnJR/j9odvIu+d0HzcJafsWZYKtpR7dbX9aC3lJ+OWzQBEzABEyiJwHdop93+P8R7O5SUQ6Ob2SliB6q4mKXRdJ28CZiACeRJ4GOkFeJA386HfkDOmCe2tLLSvZuaxKddJ4R470x8T5FWyo7GBEzABEygAIHVWTfWdX8dd75RIDavOiCB3Vk+xMG+k4+DB4zHi5uACZiACaRJQIP+HkCd9vdF338K37qt0FYSgRlo5xFUtOO6rf+5knJxMyZgAiZgAnEI6MFvV6Fu+/qin+0fJ3R77UZg78idqo3iMOTLAd16wZ+ZgAmYQJoEliOs21HRA3y39Z/F/1xppp93VNOT3p2oW+eE+Oxs2vDAQCDYTMAETKAmBN5HnE+jEMeAbj78PJkKN4jNSuhgdf5NSE8ktJmACZiACaRNYC/Cew11O3CH+Ex3jWmGWluFBP5E2yE6s5ePx2nnnRXm6aZNwARMwAQ6E5iWj45DvfbloT4f3zkUf1IWgUVpKObtHSM3Fs0Y+BukNm0mYAImYALVE9DsfluhO9HI/XXM1yo0bIkQ+DJxxOzssb5fpj09l8CDPxLZAByGCZhAIwlsRNaxR/mP3f/roXRzN5J2okmrAvwzGttRsf/WIJOvI92WaDMBEzABEyiHwMo0cw6KvY8f619ngTcuJ0W3MggB/Rq/D43tsDL+foh2j0R6oNCUyGYCJmACJhCWwLy403z7ZyEdiMvYt49tw/f8Az5VW4fAXkVjO63MvzVY8Ffog8hnBoBgMwETMIEhCSzBenuif6GqDvoTjx962l8tfuDplHhTTeMBDkgk+ReJQxvNXegBdP+I//VaZw5eQTYTMAETaCKBmUl6PjT/BE18rf9XREujFOxRgtBlh3tTCKZXDE0uAMTmp2j7XpD8uQlEJqBfDreiK9Dl6EJ0MarKNF/5JuitE6QdmqbUTjW+VYjNk3ABwVYpgedofX10aaVRuPG+CWj63tPQxFM3/t8sUtkGfs12OXvfW3K4BXXg72eMTOrxpdKPjqMZ+xTd8aXvjq1mBKYl3n8gf1HNILVtQJd/3lPS90njUI4a8HuQenyp9afjyXMfozEHml/AVlMCOuV5NfIX1AxS2wY0VelaJXyvThxy+1d8a5YQ30lDxpdafzqe/PYxu5Ww/buJyARUBPwT+QtqBqltA7exXca8U2SLgtv9Layvh27Fso/iOLU+cTzuE91Jtn2sjb4Mv7oGbnuDgEbi/xatgJZ84y3/awJJEJiNKOZAep5FaJsHh2eiIgdwjVXQIDzddx3aNOr7DDRdaMf2ZwIFCOh48RF0QgEfXjVBArp/85fIFb4ZpLYNxJhS+tuBtnVdB1WREtr2xWFq/eB4mt0nT7BNrh16Q6/C35uqaDTxNnVaZ1v0daTrmzYTSIWAbncLbasGcqhbinXbYGgLFV/ouOyvmQRuIm2NedHl4tqbC4DOXahfHuuhWkzo0DkNf5IRgRgHw5A+Q/qa2G0xip6Jvv2/CQxC4DgW1jZ+wyArpbysC4DuvaMqbyX0p+6L+VMTKIVA6F/YCxF1yMsKoQuA0PGV0kluJDsCz5ORzgpvgzTZTzbmAqB3Vz7GIpuiL6Bney/uJUzABEzABDIhoFn9VNgek0k+o9JwATAKR8c/NOjnCLQM0syBNhOogoCm4g1pd+NMU/yGMk1jHNJCxxcyNvvKm4AG+u2I3o5uzDVVFwCD9ew9LL45eh+6E9lMoEwCoQ+wij2kz5C+JnK9cuIL/28CJRE4jnaWQpoZU3e3ZGsuAIbrWo0JWBbtjUL+ghouGq/VFAIxDoahDto6Sxb6DIX6NVR8TdlGnOfwBM5lVc26qWv9Dw/vxms2iYAmUNkV6W4B7QQtM4ixDejXSAzTRECPoqIxHxkjOHxqIqDHA8RXND+vX3wbSZXh6WxfayCbCQxNYGrW3AFdg1Ld0B1XPfvmNrYpTwVcz77zdy7NfnuB75Rm8dNdXjYTCEpgRbwdjB5A3gGYQZFtQJNR+WFAk012kr9L3pcU3AZ0Pf/vaDs0C7KZQFQCetaCnhH9U6RfcUUOBF63efzuZ5t5DyrDdIZBlxkG2c5Sj2+QXLzsYH1fF14vsk2fhzReaxyymUBlBBamZU0o8St0F6rLl8hxlt9Xv2b7mB2VbSpY70O9+jz1+HrF789793EdGWnSnovQfmgD5IdIAaGTTd7pA79fCgH96loC6emDEzUfr2dEM02QXku+YwMImZp2tLcijaK/HF2ILkZVmR6NrUJAMw9KK6NHUKrxabpgn9IFQsb2ErlpIrZnJkivn0K3o5sn6Cb+vxvp+2Trg8D/A/oHQyURXx9BAAAAAElFTkSuQmCC;" parent="1" vertex="1">
          <mxGeometry x="609.85" y="480.94" width="40" height="40" as="geometry" />
        </mxCell>
        <mxCell id="Sfq1RslhefIw9rJTZr1K-24" value="&lt;div&gt;&lt;br&gt;&lt;/div&gt;&lt;div&gt;&lt;br&gt;&lt;/div&gt;&lt;div&gt;&lt;br&gt;&lt;/div&gt;&lt;div&gt;&lt;br&gt;&lt;/div&gt;&lt;div&gt;&lt;br&gt;&lt;/div&gt;&lt;div&gt;&lt;br&gt;&lt;/div&gt;&lt;div&gt;&lt;br&gt;&lt;/div&gt;&lt;div&gt;&lt;br&gt;&lt;/div&gt;" style="rounded=1;whiteSpace=wrap;html=1;fillColor=#ade1e0;strokeColor=#0097a7;" parent="1" vertex="1">
          <mxGeometry x="993.84" y="368" width="215" height="560" as="geometry" />
        </mxCell>
        <mxCell id="Sfq1RslhefIw9rJTZr1K-16" value="&lt;div&gt;&lt;br&gt;&lt;/div&gt;" style="rounded=1;whiteSpace=wrap;html=1;fillColor=#A4BBFC;strokeColor=#316192;" parent="1" vertex="1">
          <mxGeometry x="445" y="760" width="240" height="170" as="geometry" />
        </mxCell>
        <mxCell id="Sfq1RslhefIw9rJTZr1K-33" value="" style="shape=image;verticalLabelPosition=bottom;labelBackgroundColor=default;verticalAlign=top;aspect=fixed;imageAspect=0;image=https://external-content.duckduckgo.com/iu/?u=https%3A%2F%2Fassets.stickpng.com%2Fimages%2F62a4bbf6fdee15d2905007bb.png&amp;f=1&amp;nofb=1&amp;ipt=e678b955575d0c411a244a5f0dc7d9bad13e627a943470133b472022b55b5fc1&amp;ipo=images;" parent="1" vertex="1">
          <mxGeometry x="1053.87" y="582" width="99.94" height="99.94" as="geometry" />
        </mxCell>
        <mxCell id="CuAGZkpqK5YdlOxSWt7X-23" style="edgeStyle=orthogonalEdgeStyle;rounded=0;orthogonalLoop=1;jettySize=auto;html=1;entryX=1;entryY=0.25;entryDx=0;entryDy=0;strokeWidth=2;" edge="1" parent="1" source="Sfq1RslhefIw9rJTZr1K-7" target="Sfq1RslhefIw9rJTZr1K-16">
          <mxGeometry relative="1" as="geometry">
            <Array as="points">
              <mxPoint x="730" y="690" />
              <mxPoint x="730" y="803" />
              <mxPoint x="685" y="803" />
            </Array>
          </mxGeometry>
        </mxCell>
        <mxCell id="Sfq1RslhefIw9rJTZr1K-7" value="&lt;div&gt;&lt;br&gt;&lt;/div&gt;" style="rounded=1;whiteSpace=wrap;html=1;fillColor=#d5e8d4;strokeColor=#82b366;" parent="1" vertex="1">
          <mxGeometry x="445" y="570" width="240" height="170" as="geometry" />
        </mxCell>
        <mxCell id="Sfq1RslhefIw9rJTZr1K-10" value="" style="shape=image;verticalLabelPosition=bottom;labelBackgroundColor=default;verticalAlign=top;aspect=fixed;imageAspect=0;image=https://external-content.duckduckgo.com/iu/?u=https%3A%2F%2Fassets.stickpng.com%2Fimages%2F62a4bbf6fdee15d2905007bb.png&amp;f=1&amp;nofb=1&amp;ipt=e678b955575d0c411a244a5f0dc7d9bad13e627a943470133b472022b55b5fc1&amp;ipo=images;" parent="1" vertex="1">
          <mxGeometry x="475" y="670" width="64.94" height="64.94" as="geometry" />
        </mxCell>
        <mxCell id="Sfq1RslhefIw9rJTZr1K-11" value="" style="shape=image;verticalLabelPosition=bottom;labelBackgroundColor=default;verticalAlign=top;aspect=fixed;imageAspect=0;image=https://external-content.duckduckgo.com/iu/?u=https%3A%2F%2Fd3uyj2gj5wa63n.cloudfront.net%2Fwp-content%2Fuploads%2F2021%2F02%2Ffastapi-logo.png&amp;f=1&amp;nofb=1&amp;ipt=7bc6f4742b453553315e2610ca97a124a6560b65b6ccbb2bf21e84d739780f4e&amp;ipo=images;" parent="1" vertex="1">
          <mxGeometry x="462.24" y="615.94" width="199.53" height="71.97" as="geometry" />
        </mxCell>
        <mxCell id="CuAGZkpqK5YdlOxSWt7X-1" value="&lt;font face=&quot;Verdana&quot; style=&quot;font-size: 32px;&quot;&gt;&lt;b style=&quot;font-size: 32px;&quot;&gt;Google Cloud&lt;/b&gt;&lt;/font&gt;" style="text;html=1;align=center;verticalAlign=middle;whiteSpace=wrap;rounded=0;fontSize=32;" vertex="1" parent="1">
          <mxGeometry x="481.83000000000004" y="286.5" width="260" height="30" as="geometry" />
        </mxCell>
        <mxCell id="CuAGZkpqK5YdlOxSWt7X-2" value="&lt;font face=&quot;Verdana&quot; style=&quot;font-size: 30px;&quot;&gt;CloudStorage&lt;/font&gt;" style="text;html=1;align=center;verticalAlign=middle;whiteSpace=wrap;rounded=0;fontSize=30;fontStyle=1" vertex="1" parent="1">
          <mxGeometry x="455" y="387.51" width="210" height="30" as="geometry" />
        </mxCell>
        <mxCell id="CuAGZkpqK5YdlOxSWt7X-3" value="&lt;font face=&quot;Verdana&quot; style=&quot;font-size: 30px;&quot;&gt;CloudRun&lt;/font&gt;" style="text;html=1;align=center;verticalAlign=middle;whiteSpace=wrap;rounded=0;fontSize=30;fontStyle=1" vertex="1" parent="1">
          <mxGeometry x="459.5" y="582" width="210" height="30" as="geometry" />
        </mxCell>
        <mxCell id="CuAGZkpqK5YdlOxSWt7X-4" value="&lt;font face=&quot;Verdana&quot; style=&quot;font-size: 30px;&quot;&gt;CloudSQL&lt;/font&gt;" style="text;html=1;align=center;verticalAlign=middle;whiteSpace=wrap;rounded=0;fontSize=30;fontStyle=1" vertex="1" parent="1">
          <mxGeometry x="457" y="780" width="210" height="30" as="geometry" />
        </mxCell>
        <mxCell id="CuAGZkpqK5YdlOxSWt7X-7" value="" style="shape=image;verticalLabelPosition=bottom;labelBackgroundColor=default;verticalAlign=top;aspect=fixed;imageAspect=0;image=https://static-00.iconduck.com/assets.00/docker-icon-icon-2048x1479-cres2he9.png;" vertex="1" parent="1">
          <mxGeometry x="573.81" y="675" width="76.04" height="54.94" as="geometry" />
        </mxCell>
        <mxCell id="CuAGZkpqK5YdlOxSWt7X-8" value="" style="shape=image;verticalLabelPosition=bottom;labelBackgroundColor=default;verticalAlign=top;aspect=fixed;imageAspect=0;image=https://brandlogos.net/wp-content/uploads/2021/11/postgresql-logo.png;clipPath=inset(13.67% 13.33% 15% 15.67%);" vertex="1" parent="1">
          <mxGeometry x="510.15" y="820" width="99.7" height="100.16" as="geometry" />
        </mxCell>
        <mxCell id="CuAGZkpqK5YdlOxSWt7X-9" value="&lt;font style=&quot;font-size: 32px;&quot; face=&quot;Verdana&quot;&gt;&lt;b style=&quot;font-size: 32px;&quot;&gt;RunPod&lt;/b&gt;&lt;/font&gt;" style="text;html=1;align=center;verticalAlign=middle;whiteSpace=wrap;rounded=0;fontSize=32;" vertex="1" parent="1">
          <mxGeometry x="991.0300000000002" y="272.26" width="203.34" height="52.49" as="geometry" />
        </mxCell>
        <mxCell id="CuAGZkpqK5YdlOxSWt7X-10" value="" style="shape=image;verticalLabelPosition=bottom;labelBackgroundColor=default;verticalAlign=top;aspect=fixed;imageAspect=0;image=https://static-00.iconduck.com/assets.00/docker-icon-icon-2048x1479-cres2he9.png;" vertex="1" parent="1">
          <mxGeometry x="1054.8200000000002" y="490" width="93.04" height="67.23" as="geometry" />
        </mxCell>
        <mxCell id="CuAGZkpqK5YdlOxSWt7X-11" value="&lt;font style=&quot;font-size: 30px;&quot; face=&quot;Verdana&quot;&gt;Serverless&lt;/font&gt;&lt;div&gt;&lt;font style=&quot;font-size: 30px;&quot; face=&quot;Verdana&quot;&gt;Function&lt;/font&gt;&lt;/div&gt;" style="text;html=1;align=center;verticalAlign=middle;whiteSpace=wrap;rounded=0;fontSize=30;fontStyle=1;fontColor=#000000;" vertex="1" parent="1">
          <mxGeometry x="996.35" y="390" width="210" height="57.08" as="geometry" />
        </mxCell>
        <mxCell id="CuAGZkpqK5YdlOxSWt7X-13" style="edgeStyle=orthogonalEdgeStyle;rounded=0;orthogonalLoop=1;jettySize=auto;html=1;exitX=0.5;exitY=1;exitDx=0;exitDy=0;entryX=0.25;entryY=1;entryDx=0;entryDy=0;" edge="1" parent="1" source="Sfq1RslhefIw9rJTZr1K-22" target="Sfq1RslhefIw9rJTZr1K-22">
          <mxGeometry relative="1" as="geometry" />
        </mxCell>
        <mxCell id="Sfq1RslhefIw9rJTZr1K-14" value="" style="shape=image;verticalLabelPosition=bottom;labelBackgroundColor=default;verticalAlign=top;aspect=fixed;imageAspect=0;image=https://external-content.duckduckgo.com/iu/?u=https%3A%2F%2Flogodownload.org%2Fwp-content%2Fuploads%2F2014%2F09%2Fnvidia-logo-0.png&amp;f=1&amp;nofb=1&amp;ipt=8492ca0d9fbf1037ba879f81b454907c062f34b0c7fe0995ee09f5c7fd5b58a3&amp;ipo=images;" parent="1" vertex="1">
          <mxGeometry x="1191.16" y="242.08" width="118.84" height="118.84" as="geometry" />
        </mxCell>
        <mxCell id="CuAGZkpqK5YdlOxSWt7X-16" value="" style="shape=image;verticalLabelPosition=bottom;labelBackgroundColor=default;verticalAlign=top;aspect=fixed;imageAspect=0;image=https://external-content.duckduckgo.com/iu/?u=https%3A%2F%2Fcdn.icon-icons.com%2Ficons2%2F3053%2FPNG%2F512%2Fffmpeg_macos_bigsur_icon_190192.png&amp;f=1&amp;nofb=1&amp;ipt=e46441ed3a19f834d45dcda0eda22f262a412ae3cf06f230af10528a8aca7be8&amp;ipo=images;" vertex="1" parent="1">
          <mxGeometry x="1051.3400000000001" y="700" width="100" height="100" as="geometry" />
        </mxCell>
        <mxCell id="CuAGZkpqK5YdlOxSWt7X-18" value="" style="shape=image;verticalLabelPosition=bottom;labelBackgroundColor=default;verticalAlign=top;aspect=fixed;imageAspect=0;image=https://external-content.duckduckgo.com/iu/?u=https%3A%2F%2Fres.cloudinary.com%2Fstartup-grind%2Fimage%2Fupload%2Fc_fill%2Cdpr_2.0%2Cf_auto%2Cg_center%2Ch_1080%2Cq_100%2Cw_1080%2Fv1%2Fgcs%2Fplatform-data-goog%2Fevents%2Fmediapipe_icon.png&amp;f=1&amp;nofb=1&amp;ipt=c98ce5802f5f0ef75e0f0c93c2c0247e6067d4d9de60b4f9aca539a82d620e59&amp;ipo=images;" vertex="1" parent="1">
          <mxGeometry x="1051.34" y="800" width="105" height="105" as="geometry" />
        </mxCell>
        <mxCell id="CuAGZkpqK5YdlOxSWt7X-19" value="" style="endArrow=classic;html=1;rounded=0;exitX=0.998;exitY=0.498;exitDx=0;exitDy=0;exitPerimeter=0;entryX=0;entryY=0.5;entryDx=0;entryDy=0;strokeWidth=2;" edge="1" parent="1" source="Sfq1RslhefIw9rJTZr1K-1" target="Sfq1RslhefIw9rJTZr1K-7">
          <mxGeometry width="50" height="50" relative="1" as="geometry">
            <mxPoint x="240" y="600" as="sourcePoint" />
            <mxPoint x="340" y="600" as="targetPoint" />
          </mxGeometry>
        </mxCell>
        <mxCell id="CuAGZkpqK5YdlOxSWt7X-21" style="edgeStyle=orthogonalEdgeStyle;rounded=0;orthogonalLoop=1;jettySize=auto;html=1;strokeWidth=2;entryX=1;entryY=0.75;entryDx=0;entryDy=0;" edge="1" parent="1" source="Sfq1RslhefIw9rJTZr1K-7" target="Sfq1RslhefIw9rJTZr1K-19">
          <mxGeometry relative="1" as="geometry">
            <mxPoint x="680" y="500" as="targetPoint" />
            <Array as="points">
              <mxPoint x="730" y="620" />
              <mxPoint x="730" y="505" />
              <mxPoint x="680" y="505" />
            </Array>
          </mxGeometry>
        </mxCell>
        <mxCell id="CuAGZkpqK5YdlOxSWt7X-24" style="edgeStyle=orthogonalEdgeStyle;rounded=0;orthogonalLoop=1;jettySize=auto;html=1;entryX=-0.001;entryY=0.514;entryDx=0;entryDy=0;entryPerimeter=0;strokeWidth=2;" edge="1" parent="1" source="Sfq1RslhefIw9rJTZr1K-7" target="Sfq1RslhefIw9rJTZr1K-24">
          <mxGeometry relative="1" as="geometry" />
        </mxCell>
        <mxCell id="CuAGZkpqK5YdlOxSWt7X-25" style="edgeStyle=orthogonalEdgeStyle;rounded=0;orthogonalLoop=1;jettySize=auto;html=1;entryX=1;entryY=0.25;entryDx=0;entryDy=0;strokeWidth=2;" edge="1" parent="1" source="Sfq1RslhefIw9rJTZr1K-24" target="Sfq1RslhefIw9rJTZr1K-19">
          <mxGeometry relative="1" as="geometry">
            <Array as="points">
              <mxPoint x="840" y="420" />
              <mxPoint x="840" y="420" />
            </Array>
          </mxGeometry>
        </mxCell>
      </root>
    </mxGraphModel>
  </diagram>
</mxfile>
